<?xml version="1.0" encoding="UTF-8" standalone="no"?>
<!-- Created with Inkscape (http://www.inkscape.org/) -->

<svg
   sodipodi:docname="3.2.Vectores_unitarios.svg"
   inkscape:version="1.1.1 (3bf5ae0d25, 2021-09-20)"
   id="svg2770"
   version="1.1"
   viewBox="0 0 210 297"
   height="297mm"
   width="210mm"
   inkscape:export-filename="C:\Users\Luis Hervella\Downloads\01_ejemplo1.png"
   inkscape:export-xdpi="96"
   inkscape:export-ydpi="96"
   xmlns:inkscape="http://www.inkscape.org/namespaces/inkscape"
   xmlns:sodipodi="http://sodipodi.sourceforge.net/DTD/sodipodi-0.dtd"
   xmlns:xlink="http://www.w3.org/1999/xlink"
   xmlns="http://www.w3.org/2000/svg"
   xmlns:svg="http://www.w3.org/2000/svg"
   xmlns:ns1="http://www.iki.fi/pav/software/textext/">
  <sodipodi:namedview
     id="namedview2772"
     pagecolor="#ffffff"
     bordercolor="#666666"
     borderopacity="1.0"
     inkscape:pageshadow="2"
     inkscape:pageopacity="0.0"
     inkscape:pagecheckerboard="0"
     inkscape:document-units="mm"
     showgrid="false"
     inkscape:zoom="0.67615741"
     inkscape:cx="396.35741"
     inkscape:cy="561.25984"
     inkscape:window-width="1920"
     inkscape:window-height="1009"
     inkscape:window-x="2552"
     inkscape:window-y="201"
     inkscape:window-maximized="1"
     inkscape:current-layer="layer1" />
  <defs
     id="defs2767">
    <inkscape:path-effect
       effect="bspline"
       id="path-effect8309"
       is_visible="true"
       lpeversion="1"
       weight="33.333333"
       steps="2"
       helper_size="0"
       apply_no_weight="true"
       apply_with_weight="true"
       only_selected="false" />
    <inkscape:path-effect
       effect="bspline"
       id="path-effect7879"
       is_visible="true"
       lpeversion="1"
       weight="33.333333"
       steps="2"
       helper_size="0"
       apply_no_weight="true"
       apply_with_weight="true"
       only_selected="false" />
    <inkscape:path-effect
       effect="bspline"
       id="path-effect7875"
       is_visible="true"
       lpeversion="1"
       weight="33.333333"
       steps="2"
       helper_size="0"
       apply_no_weight="true"
       apply_with_weight="true"
       only_selected="false" />
    <linearGradient
       inkscape:collect="always"
       id="linearGradient17587">
      <stop
         style="stop-color:#00ff00;stop-opacity:1;"
         offset="0"
         id="stop17583" />
      <stop
         style="stop-color:#00ff00;stop-opacity:0;"
         offset="1"
         id="stop17585" />
    </linearGradient>
    <inkscape:path-effect
       effect="spiro"
       id="path-effect3673"
       is_visible="true"
       lpeversion="1" />
    <inkscape:path-effect
       effect="spiro"
       id="path-effect2747"
       is_visible="true"
       lpeversion="1" />
    <inkscape:path-effect
       effect="spiro"
       id="path-effect2200"
       is_visible="true"
       lpeversion="1" />
    <inkscape:path-effect
       effect="spiro"
       id="path-effect2196"
       is_visible="true"
       lpeversion="1" />
    <inkscape:path-effect
       effect="spiro"
       id="path-effect1919"
       is_visible="true"
       lpeversion="1" />
    <inkscape:path-effect
       effect="bspline"
       id="path-effect1830"
       is_visible="true"
       lpeversion="1"
       weight="33.333333"
       steps="2"
       helper_size="0"
       apply_no_weight="true"
       apply_with_weight="true"
       only_selected="false" />
    <inkscape:path-effect
       effect="bspline"
       id="path-effect1826"
       is_visible="true"
       lpeversion="1"
       weight="33.333333"
       steps="2"
       helper_size="0"
       apply_no_weight="true"
       apply_with_weight="true"
       only_selected="false" />
    <linearGradient
       id="linearGradient11027"
       inkscape:swatch="solid">
      <stop
         style="stop-color:#ff0000;stop-opacity:1;"
         offset="0"
         id="stop11025" />
    </linearGradient>
    <marker
       style="overflow:visible"
       id="Arrow1Sstart"
       refX="0.0"
       refY="0.0"
       orient="auto"
       inkscape:stockid="Arrow1Sstart"
       inkscape:isstock="true">
      <path
         transform="scale(0.2) translate(6,0)"
         style="fill-rule:evenodd;fill:context-stroke;stroke:context-stroke;stroke-width:1.0pt"
         d="M 0.0,0.0 L 5.0,-5.0 L -12.5,0.0 L 5.0,5.0 L 0.0,0.0 z "
         id="path3861" />
    </marker>
    <marker
       style="overflow:visible;"
       id="marker4110"
       refX="0.0"
       refY="0.0"
       orient="auto"
       inkscape:stockid="Arrow1Send"
       inkscape:isstock="true">
      <path
         transform="scale(0.2) rotate(180) translate(6,0)"
         style="fill-rule:evenodd;fill:context-stroke;stroke:context-stroke;stroke-width:1.0pt;"
         d="M 0.0,0.0 L 5.0,-5.0 L -12.5,0.0 L 5.0,5.0 L 0.0,0.0 z "
         id="path3864" />
    </marker>
    <inkscape:path-effect
       effect="spiro"
       id="path-effect2274"
       is_visible="true"
       lpeversion="1" />
    <marker
       style="overflow:visible;"
       id="marker15437"
       refX="0.0"
       refY="0.0"
       orient="auto"
       inkscape:stockid="Arrow1Send"
       inkscape:isstock="true">
      <path
         transform="scale(0.2) rotate(180) translate(6,0)"
         style="fill-rule:evenodd;fill:context-stroke;stroke:context-stroke;stroke-width:1.0pt;"
         d="M 0.0,0.0 L 5.0,-5.0 L -12.5,0.0 L 5.0,5.0 L 0.0,0.0 z "
         id="path15435" />
    </marker>
    <marker
       style="overflow:visible;"
       id="Arrow1Send"
       refX="0.0"
       refY="0.0"
       orient="auto"
       inkscape:stockid="Arrow1Send"
       inkscape:isstock="true">
      <path
         transform="scale(0.2) rotate(180) translate(6,0)"
         style="fill-rule:evenodd;fill:context-stroke;stroke:context-stroke;stroke-width:1.0pt;"
         d="M 0.0,0.0 L 5.0,-5.0 L -12.5,0.0 L 5.0,5.0 L 0.0,0.0 z "
         id="path13793" />
    </marker>
    <inkscape:path-effect
       effect="spiro"
       id="path-effect15059"
       is_visible="true"
       lpeversion="1" />
    <inkscape:path-effect
       effect="spiro"
       id="path-effect15030"
       is_visible="true"
       lpeversion="1" />
    <inkscape:path-effect
       effect="spiro"
       id="path-effect15001"
       is_visible="true"
       lpeversion="1" />
    <inkscape:path-effect
       effect="spiro"
       id="path-effect14982"
       is_visible="true"
       lpeversion="1" />
    <inkscape:path-effect
       effect="spiro"
       id="path-effect14874"
       is_visible="true"
       lpeversion="1" />
    <inkscape:path-effect
       effect="spiro"
       id="path-effect14676"
       is_visible="true"
       lpeversion="1" />
    <inkscape:path-effect
       effect="spiro"
       id="path-effect14647"
       is_visible="true"
       lpeversion="1" />
    <inkscape:path-effect
       effect="spiro"
       id="path-effect14628"
       is_visible="true"
       lpeversion="1" />
    <inkscape:path-effect
       effect="spiro"
       id="path-effect14520"
       is_visible="true"
       lpeversion="1" />
    <inkscape:path-effect
       effect="spiro"
       id="path-effect14450"
       is_visible="true"
       lpeversion="1" />
    <marker
       style="overflow:visible"
       id="marker3397"
       refX="0.0"
       refY="0.0"
       orient="auto"
       inkscape:stockid="Arrow1Mstart"
       inkscape:isstock="true">
      <path
         transform="scale(0.4) translate(10,0)"
         style="fill-rule:evenodd;fill:context-stroke;stroke:context-stroke;stroke-width:1.0pt"
         d="M 0.0,0.0 L 5.0,-5.0 L -12.5,0.0 L 5.0,5.0 L 0.0,0.0 z "
         id="path3395" />
    </marker>
    <marker
       style="overflow:visible;"
       id="Arrow1Mend"
       refX="0.0"
       refY="0.0"
       orient="auto"
       inkscape:stockid="Arrow1Mend"
       inkscape:isstock="true">
      <path
         transform="scale(0.4) rotate(180) translate(10,0)"
         style="fill-rule:evenodd;fill:context-stroke;stroke:context-stroke;stroke-width:1.0pt;"
         d="M 0.0,0.0 L 5.0,-5.0 L -12.5,0.0 L 5.0,5.0 L 0.0,0.0 z "
         id="path3128" />
    </marker>
    <marker
       style="overflow:visible"
       id="Arrow1Mstart"
       refX="0.0"
       refY="0.0"
       orient="auto"
       inkscape:stockid="Arrow1Mstart"
       inkscape:isstock="true">
      <path
         transform="scale(0.4) translate(10,0)"
         style="fill-rule:evenodd;fill:context-stroke;stroke:context-stroke;stroke-width:1.0pt"
         d="M 0.0,0.0 L 5.0,-5.0 L -12.5,0.0 L 5.0,5.0 L 0.0,0.0 z "
         id="path3125" />
    </marker>
    <marker
       style="overflow:visible"
       id="Arrow1Mend-8"
       refX="0"
       refY="0"
       orient="auto"
       inkscape:stockid="Arrow1Mend"
       inkscape:isstock="true">
      <path
         transform="matrix(-0.4,0,0,-0.4,-4,0)"
         style="fill:context-stroke;fill-rule:evenodd;stroke:context-stroke;stroke-width:1pt"
         d="M 0,0 5,-5 -12.5,0 5,5 Z"
         id="path3128-1" />
    </marker>
    <g
       id="id-b9d6fca2-256c-44c5-81e7-0d1b739764cb-7">
      <symbol
         overflow="visible"
         id="id-9a993e8d-f8a6-48cf-9ac7-01c770303495-5">
        <path
           style="stroke:none;stroke-width:0"
           d=""
           id="id-9b539236-f9f3-41d3-bf21-3145fb319625-3" />
      </symbol>
      <symbol
         overflow="visible"
         id="id-2b0ab4a2-d565-49cf-97db-7e3471e678cc-3">
        <path
           style="stroke:none;stroke-width:0"
           d="m 5.359375,-5.9375 c -0.140625,0.140625 -0.46875,0.421875 -0.46875,0.59375 0,0.09375 0.09375,0.203125 0.1875,0.203125 0.09375,0 0.140625,-0.078125 0.203125,-0.140625 C 5.390625,-5.421875 5.625,-5.703125 6.0625,-5.921875 6.125,-5.96875 6.234375,-6.015625 6.234375,-6.125 6.234375,-6.234375 6.15625,-6.28125 6.09375,-6.328125 5.875,-6.484375 5.765625,-6.65625 5.6875,-6.890625 5.65625,-6.984375 5.625,-7.125 5.484375,-7.125 c -0.140625,0 -0.203125,0.140625 -0.203125,0.21875 0,0.046875 0.078125,0.359375 0.234375,0.578125 H 2.15625 c -0.15625,0 -0.34375,0 -0.34375,0.203125 0,0.1875 0.1875,0.1875 0.34375,0.1875 z m 0,0"
           id="id-eb77f961-1280-4102-8a17-b349b37e6cda-6" />
      </symbol>
      <symbol
         overflow="visible"
         id="id-ba49f590-f26a-4246-b452-d0b13b67b385-9">
        <path
           style="stroke:none;stroke-width:0"
           d="M 3.015625,-3.15625 H 4.71875 c 1.40625,0 2.796875,-1.03125 2.796875,-2.140625 0,-0.78125 -0.65625,-1.515625 -1.96875,-1.515625 h -3.21875 c -0.1875,0 -0.296875,0 -0.296875,0.1875 0,0.125 0.078125,0.125 0.28125,0.125 0.125,0 0.3125,0.015625 0.421875,0.015625 0.171875,0.03125 0.21875,0.046875 0.21875,0.171875 0,0.03125 0,0.0625 -0.03125,0.1875 l -1.34375,5.34375 c -0.09375,0.390625 -0.109375,0.46875 -0.90625,0.46875 -0.15625,0 -0.265625,0 -0.265625,0.1875 C 0.40625,0 0.515625,0 0.546875,0 0.828125,0 1.53125,-0.03125 1.8125,-0.03125 c 0.21875,0 0.4375,0.015625 0.640625,0.015625 0.21875,0 0.4375,0.015625 0.640625,0.015625 0.078125,0 0.203125,0 0.203125,-0.203125 0,-0.109375 -0.09375,-0.109375 -0.28125,-0.109375 -0.359375,0 -0.640625,0 -0.640625,-0.171875 0,-0.0625 0.015625,-0.109375 0.03125,-0.171875 z M 3.734375,-6.125 C 3.828125,-6.46875 3.84375,-6.5 4.28125,-6.5 h 0.953125 c 0.828125,0 1.359375,0.265625 1.359375,0.953125 0,0.390625 -0.203125,1.25 -0.59375,1.609375 -0.5,0.453125 -1.09375,0.53125 -1.53125,0.53125 H 3.0625 Z m 0,0"
           id="id-3735b8db-fc89-4cbf-a701-9a37f8b62b9b-5" />
      </symbol>
      <symbol
         overflow="visible"
         id="id-21f735da-6683-4d8c-ab6b-4f1870be48bb-3">
        <path
           style="stroke:none;stroke-width:0"
           d="M 4.359375,-0.0625 C 5.90625,-0.640625 7.375,-2.421875 7.375,-4.34375 c 0,-1.609375 -1.0625,-2.6875 -2.546875,-2.6875 -2.140625,0 -4.34375,2.265625 -4.34375,4.59375 0,1.65625 1.125,2.65625 2.5625,2.65625 0.25,0 0.578125,-0.046875 0.96875,-0.15625 -0.03125,0.625 -0.03125,0.640625 -0.03125,0.78125 0,0.3125 0,1.09375 0.828125,1.09375 1.171875,0 1.65625,-1.828125 1.65625,-1.9375 0,-0.0625 -0.0625,-0.09375 -0.109375,-0.09375 -0.078125,0 -0.09375,0.046875 -0.125,0.109375 C 6,0.71875 5.421875,0.96875 5.078125,0.96875 c -0.46875,0 -0.609375,-0.265625 -0.71875,-1.03125 z m -1.875,-0.078125 c -0.78125,-0.3125 -1.125,-1.078125 -1.125,-1.984375 0,-0.6875 0.265625,-2.109375 1.015625,-3.171875 C 3.109375,-6.3125 4.046875,-6.78125 4.78125,-6.78125 5.765625,-6.78125 6.5,-6 6.5,-4.671875 c 0,1 -0.515625,3.34375 -2.1875,4.265625 -0.046875,-0.34375 -0.140625,-1.0625 -0.875,-1.0625 -0.53125,0 -1.015625,0.484375 -1.015625,1.015625 0,0.1875 0.0625,0.296875 0.0625,0.3125 z M 3.09375,-0.03125 c -0.140625,0 -0.453125,0 -0.453125,-0.421875 0,-0.40625 0.375,-0.796875 0.796875,-0.796875 0.421875,0 0.609375,0.234375 0.609375,0.84375 0,0.140625 -0.015625,0.15625 -0.109375,0.203125 C 3.671875,-0.09375 3.375,-0.03125 3.09375,-0.03125 Z m 0,0"
           id="id-9daf3346-a05c-48d8-866e-464d12a68638-5" />
      </symbol>
    </g>
    <marker
       style="overflow:visible"
       id="Arrow1Sstart-1"
       refX="0"
       refY="0"
       orient="auto"
       inkscape:stockid="Arrow1Sstart"
       inkscape:isstock="true">
      <path
         transform="matrix(0.2,0,0,0.2,1.2,0)"
         style="fill:context-stroke;fill-rule:evenodd;stroke:context-stroke;stroke-width:1pt"
         d="M 0,0 5,-5 -12.5,0 5,5 Z"
         id="path3861-1" />
    </marker>
    <marker
       style="overflow:visible"
       id="marker4110-6"
       refX="0"
       refY="0"
       orient="auto"
       inkscape:stockid="Arrow1Send"
       inkscape:isstock="true">
      <path
         transform="matrix(-0.2,0,0,-0.2,-1.2,0)"
         style="fill:context-stroke;fill-rule:evenodd;stroke:context-stroke;stroke-width:1pt"
         d="M 0,0 5,-5 -12.5,0 5,5 Z"
         id="path3864-1" />
    </marker>
    <marker
       style="overflow:visible"
       id="marker2500"
       refX="0"
       refY="0"
       orient="auto"
       inkscape:stockid="Arrow1Send"
       inkscape:isstock="true">
      <path
         transform="matrix(-0.2,0,0,-0.2,-1.2,0)"
         style="fill:context-stroke;fill-rule:evenodd;stroke:context-stroke;stroke-width:1pt"
         d="M 0,0 5,-5 -12.5,0 5,5 Z"
         id="path2498" />
    </marker>
    <marker
       style="overflow:visible"
       id="marker2504"
       refX="0"
       refY="0"
       orient="auto"
       inkscape:stockid="Arrow1Send"
       inkscape:isstock="true">
      <path
         transform="matrix(-0.2,0,0,-0.2,-1.2,0)"
         style="fill:context-stroke;fill-rule:evenodd;stroke:context-stroke;stroke-width:1pt"
         d="M 0,0 5,-5 -12.5,0 5,5 Z"
         id="path2502" />
    </marker>
    <g
       id="id-50e147b0-b653-48b6-b5e2-d154f6fea026-4"
       style="opacity:1;fill:#ff0000;fill-opacity:1;stroke:#ff0000;stroke-width:0;stroke-opacity:1">
      <symbol
         overflow="visible"
         id="id-7e09d12a-1ccc-4211-8d0f-092dc344ef09-8"
         style="opacity:1;fill:#ff0000;fill-opacity:1;stroke:#ff0000;stroke-width:0;stroke-opacity:1">
        <path
           style="opacity:1;fill:#ff0000;fill-opacity:1;stroke:#ff0000;stroke-width:0;stroke-opacity:1"
           d=""
           id="id-a49a4ded-0be3-49de-8929-dbecdad31230-6" />
      </symbol>
      <symbol
         overflow="visible"
         id="id-40309bf4-91b8-43dc-acc5-1af2c5e43404-1"
         style="opacity:1;fill:#ff0000;fill-opacity:1;stroke:#ff0000;stroke-width:0;stroke-opacity:1">
        <path
           style="opacity:1;fill:#ff0000;fill-opacity:1;stroke:#ff0000;stroke-width:0;stroke-opacity:1"
           d="M 4.359375,-0.71875 V 0.0625 L 6.125,0 v -0.46875 c -0.609375,0 -0.6875,0 -0.6875,-0.390625 v -3.625 L 3.625,-4.40625 v 0.46875 c 0.609375,0 0.6875,0 0.6875,0.390625 v 1.90625 c 0,0.8125 -0.515625,1.34375 -1.234375,1.34375 -0.78125,0 -0.8125,-0.25 -0.8125,-0.796875 v -3.390625 l -1.8125,0.078125 v 0.46875 c 0.609375,0 0.6875,0 0.6875,0.390625 v 2.328125 c 0,1.0625 0.796875,1.28125 1.796875,1.28125 0.25,0 0.96875,0 1.421875,-0.78125 z m 0,0"
           id="id-8e87dd90-ed38-451a-b5bb-bd8982b6f7b8-3" />
      </symbol>
    </g>
    <g
       id="id-85a63ff1-588e-409f-8960-4d87e5e53d48-4"
       style="fill:#0000ff;fill-opacity:1;stroke-width:0">
      <symbol
         overflow="visible"
         id="id-3025c363-096e-452d-8d0a-3b3e24c7c48a-0"
         style="fill:#0000ff;fill-opacity:1;stroke-width:0">
        <path
           style="fill:#0000ff;fill-opacity:1;stroke:#0000ff;stroke-width:0"
           d=""
           id="id-9569ed33-5fe5-4584-8454-8fa3dbb61cd1-3" />
      </symbol>
      <symbol
         overflow="visible"
         id="id-3794a8c6-3559-4f16-82df-d110836eff6f-1"
         style="fill:#0000ff;fill-opacity:1;stroke-width:0">
        <path
           style="fill:#0000ff;fill-opacity:1;stroke:#0000ff;stroke-width:0"
           d="m 5.046875,-3.75 c 0.0625,-0.140625 0.09375,-0.203125 0.734375,-0.203125 v -0.46875 C 5.53125,-4.40625 5.25,-4.390625 5,-4.390625 c -0.25,0 -0.703125,-0.03125 -0.90625,-0.03125 v 0.46875 c 0.1875,0 0.46875,0.03125 0.46875,0.109375 0,0 0,0.03125 -0.046875,0.109375 l -1.15625,2.5 -1.265625,-2.71875 H 2.625 v -0.46875 c -0.328125,0.015625 -1.21875,0.03125 -1.234375,0.03125 -0.28125,0 -0.71875,-0.03125 -1.125,-0.03125 v 0.46875 h 0.625 l 1.75,3.75 c 0.125,0.25 0.25,0.25 0.375,0.25 0.171875,0 0.28125,-0.03125 0.375,-0.25 z m 0,0"
           id="id-0be0bb2c-51ad-450c-8f51-15252518cc8b-2" />
      </symbol>
    </g>
    <g
       id="id-c0f55b88-4146-4b8e-94a4-cd9df548eb06-2">
      <symbol
         overflow="visible"
         id="id-35ed1a44-44c3-4fcb-b8b7-56954f798156-1">
        <path
           style="stroke:none;stroke-width:0"
           d=""
           id="id-f495936d-52e4-4e5b-8ba2-4367a1c83e8b-8" />
      </symbol>
      <symbol
         overflow="visible"
         id="id-d1771a80-9e51-4c95-ae02-1e4d280f077a-7">
        <path
           style="stroke:none;stroke-width:0"
           d="m 4.53125,-4.984375 c 0,-0.65625 -0.171875,-2.046875 -1.1875,-2.046875 -1.390625,0 -2.921875,2.8125 -2.921875,5.09375 0,0.9375 0.28125,2.046875 1.1875,2.046875 1.40625,0 2.921875,-2.859375 2.921875,-5.09375 z M 1.46875,-3.625 C 1.640625,-4.25 1.84375,-5.046875 2.25,-5.765625 2.515625,-6.25 2.875,-6.8125 3.328125,-6.8125 c 0.484375,0 0.546875,0.640625 0.546875,1.203125 0,0.5 -0.078125,1 -0.3125,1.984375 z m 2,0.328125 C 3.359375,-2.84375 3.15625,-2 2.765625,-1.28125 c -0.34375,0.6875 -0.71875,1.171875 -1.15625,1.171875 -0.328125,0 -0.53125,-0.296875 -0.53125,-1.21875 0,-0.421875 0.0625,-1 0.3125,-1.96875 z m 0,0"
           id="id-9dee450b-8f7a-4fc7-9ee3-7726f2a03be4-1" />
      </symbol>
    </g>
    <linearGradient
       inkscape:collect="always"
       xlink:href="#linearGradient17587"
       id="linearGradient17589-1"
       x1="-0.5"
       y1="2.940841"
       x2="12.127271"
       y2="2.940841"
       gradientUnits="userSpaceOnUse"
       gradientTransform="translate(43.429241,165.60672)" />
    <g
       id="id-ff60e783-e5f9-4ead-a349-95fdf4594a60-6"
       style="stroke:url(#linearGradient17589-1)">
      <symbol
         overflow="visible"
         id="id-a185ef5d-7977-4250-a603-eef3ab76a724-5"
         style="stroke:url(#linearGradient17589-1)">
        <path
           style="stroke:url(#linearGradient17589-1)"
           d=""
           id="id-4a932ad2-7475-45f4-826b-726de79de43a-6" />
      </symbol>
      <symbol
         overflow="visible"
         id="id-1613d61c-0002-4a43-93e9-b00d3ee5c01b-6"
         style="stroke:url(#linearGradient17589-1)">
        <path
           style="stroke:url(#linearGradient17589-1)"
           d="m 7.34375,-3.75 c 0.046875,-0.125 0.09375,-0.203125 0.6875,-0.203125 v -0.46875 C 7.796875,-4.40625 7.5,-4.390625 7.25,-4.390625 c -0.265625,0 -0.734375,-0.03125 -0.953125,-0.03125 v 0.46875 c 0.09375,0 0.578125,0 0.578125,0.109375 0,0.03125 -0.03125,0.09375 -0.03125,0.125 L 5.796875,-1.171875 4.65625,-3.953125 h 0.5625 v -0.46875 c -0.328125,0 -0.84375,0.03125 -1.140625,0.03125 -0.421875,0 -0.84375,-0.03125 -1,-0.03125 v 0.46875 h 0.59375 c 0.203125,0.5 0.203125,0.515625 0.203125,0.53125 0,0.03125 -0.03125,0.09375 -0.03125,0.125 L 3.046875,-1.390625 2,-3.953125 h 0.5625 v -0.46875 c -0.40625,0.015625 -0.8125,0.03125 -1.234375,0.03125 -0.296875,0 -0.734375,-0.03125 -1.078125,-0.03125 v 0.46875 h 0.59375 l 1.515625,3.71875 C 2.4375,-0.0625 2.46875,0.046875 2.71875,0.046875 c 0.25,0 0.296875,-0.109375 0.359375,-0.28125 L 4.140625,-2.8125 5.1875,-0.234375 c 0.078125,0.171875 0.109375,0.28125 0.359375,0.28125 0.25,0 0.296875,-0.109375 0.359375,-0.28125 z m 0,0"
           id="id-e941249f-14a5-4549-8b20-e04daf4ac6fa-2" />
      </symbol>
      <symbol
         overflow="visible"
         id="id-4c10d19e-5aed-44b7-992d-993ae0c22067-5"
         style="stroke:url(#linearGradient17589-1)">
        <path
           style="stroke:url(#linearGradient17589-1)"
           d=""
           id="id-74e51442-f921-41b1-a6d4-8548b7006787-6" />
      </symbol>
      <symbol
         overflow="visible"
         id="id-40fe34fc-e8dd-481f-bad1-c426633f12df-7"
         style="stroke:url(#linearGradient17589-1)">
        <path
           style="stroke:url(#linearGradient17589-1)"
           d="M 3.515625,-1.265625 H 3.28125 c -0.015625,0.15625 -0.09375,0.5625 -0.1875,0.625 C 3.046875,-0.59375 2.515625,-0.59375 2.40625,-0.59375 H 1.125 c 0.734375,-0.640625 0.984375,-0.84375 1.390625,-1.171875 0.515625,-0.40625 1,-0.84375 1,-1.5 0,-0.84375 -0.734375,-1.359375 -1.625,-1.359375 -0.859375,0 -1.453125,0.609375 -1.453125,1.25 0,0.34375 0.296875,0.390625 0.375,0.390625 0.15625,0 0.359375,-0.125 0.359375,-0.375 0,-0.125 -0.046875,-0.375 -0.40625,-0.375 C 0.984375,-4.21875 1.453125,-4.375 1.78125,-4.375 c 0.703125,0 1.0625,0.546875 1.0625,1.109375 0,0.609375 -0.4375,1.078125 -0.65625,1.328125 L 0.515625,-0.265625 C 0.4375,-0.203125 0.4375,-0.1875 0.4375,0 h 2.875 z m 0,0"
           id="id-edb54173-55bd-48d8-8508-4acdb292fe34-6" />
      </symbol>
    </g>
  </defs>
  <g
     inkscape:label="Capa 1"
     inkscape:groupmode="layer"
     id="layer1">
    <path
       style="fill:none;stroke:#000000;stroke-width:0.264583px;stroke-linecap:butt;stroke-linejoin:miter;stroke-opacity:1"
       d="m 81.632163,107.52333 v 0"
       id="path3870"
       sodipodi:nodetypes="cc" />
    <path
       style="fill:none;stroke:#000000;stroke-width:1;stroke-linecap:butt;stroke-linejoin:miter;stroke-miterlimit:4;stroke-dasharray:none;stroke-opacity:1;marker-start:url(#Arrow1Sstart);marker-end:url(#marker4110)"
       d="M 75,50 V 150"
       id="path3616"
       sodipodi:nodetypes="cc" />
    <path
       style="fill:none;stroke:#000000;stroke-width:1;stroke-linecap:butt;stroke-linejoin:miter;stroke-miterlimit:4;stroke-dasharray:none;stroke-opacity:1;marker-start:url(#Arrow1Sstart);marker-end:url(#marker4110)"
       d="M 15,100 H 135"
       id="path5734"
       sodipodi:nodetypes="cc" />
    <circle
       style="fill:#ffffff;fill-opacity:0;stroke:#000000;stroke-width:1;stroke-miterlimit:4;stroke-dasharray:none"
       id="path5910"
       cx="75.396744"
       cy="99.718262"
       r="40" />
    <path
       style="fill:none;stroke:#ff0000;stroke-width:2;stroke-linecap:butt;stroke-linejoin:miter;stroke-miterlimit:4;stroke-dasharray:none;stroke-opacity:1;marker-end:url(#marker4110)"
       d="M 75,100 94.292689,67.7"
       id="path6374"
       sodipodi:nodetypes="cc" />
    <path
       style="fill:none;stroke:#000000;stroke-width:0.264583px;stroke-linecap:butt;stroke-linejoin:miter;stroke-opacity:1"
       d="m 83.347826,85.695651 c 3.391622,1.30447 6.782927,2.608817 8.608868,4.956758 1.82594,2.347941 2.086804,5.739177 2.347652,9.130199"
       id="path7873"
       inkscape:path-effect="#path-effect7875"
       inkscape:original-d="m 83.347826,85.695651 c 3.391567,1.304613 6.782872,2.608961 10.173912,3.913042 0.261138,3.391638 0.522004,6.782874 0.782608,10.173915" />
    <g
       transform="matrix(0.7937475,0,0,0.7937475,86.016431,90.557786)"
       ns1:version="1.6.0"
       ns1:texconverter="pdflatex"
       ns1:pdfconverter="inkscape"
       ns1:text="$\\theta$\n"
       ns1:preamble="C:\Users\Luis Hervella\AppData\Roaming\inkscape\extensions\textext\default_packages.tex"
       ns1:scale="3.0"
       ns1:alignment="middle center"
       ns1:stroke-to-path="0"
       ns1:inkscapeversion="1.1.1"
       ns1:jacobian_sqrt="1.05833"
       id="g8259">
      <defs
         id="id-3e355f32-28a1-47e4-8f31-141594bd88fb">
        <g
           id="id-3d96d7bf-1559-42ad-8939-b68666bbbfa3">
          <symbol
             overflow="visible"
             id="id-aea5e0b1-09df-4746-806f-177a84b3a6c7">
            <path
               style="stroke:none;stroke-width:0"
               d=""
               id="id-1e066a5d-b020-4036-899a-9ffc6218436c" />
          </symbol>
          <symbol
             overflow="visible"
             id="id-1415fdc7-eb7e-4540-a833-9fd8f809a55a">
            <path
               style="stroke:none;stroke-width:0"
               d="m 4.53125,-4.984375 c 0,-0.65625 -0.171875,-2.046875 -1.1875,-2.046875 -1.390625,0 -2.921875,2.8125 -2.921875,5.09375 0,0.9375 0.28125,2.046875 1.1875,2.046875 1.40625,0 2.921875,-2.859375 2.921875,-5.09375 z M 1.46875,-3.625 C 1.640625,-4.25 1.84375,-5.046875 2.25,-5.765625 2.515625,-6.25 2.875,-6.8125 3.328125,-6.8125 c 0.484375,0 0.546875,0.640625 0.546875,1.203125 0,0.5 -0.078125,1 -0.3125,1.984375 z m 2,0.328125 C 3.359375,-2.84375 3.15625,-2 2.765625,-1.28125 c -0.34375,0.6875 -0.71875,1.171875 -1.15625,1.171875 -0.328125,0 -0.53125,-0.296875 -0.53125,-1.21875 0,-0.421875 0.0625,-1 0.3125,-1.96875 z m 0,0"
               id="id-ebb5862b-49ce-450f-9b61-21987285e547" />
          </symbol>
        </g>
      </defs>
      <g
         id="id-4a82ae58-9f6d-4852-8dec-7c7be540139d"
         transform="translate(-149.134,-127.734)">
        <g
           style="fill:#000000;fill-opacity:1"
           id="id-7059265f-ac56-48be-99ac-2eefb9d49cc9">
          <g
             transform="translate(148.712,134.765)"
             id="g8255">
            <path
               style="stroke:none;stroke-width:0"
               d="m 4.53125,-4.984375 c 0,-0.65625 -0.171875,-2.046875 -1.1875,-2.046875 -1.390625,0 -2.921875,2.8125 -2.921875,5.09375 0,0.9375 0.28125,2.046875 1.1875,2.046875 1.40625,0 2.921875,-2.859375 2.921875,-5.09375 z M 1.46875,-3.625 C 1.640625,-4.25 1.84375,-5.046875 2.25,-5.765625 2.515625,-6.25 2.875,-6.8125 3.328125,-6.8125 c 0.484375,0 0.546875,0.640625 0.546875,1.203125 0,0.5 -0.078125,1 -0.3125,1.984375 z m 2,0.328125 C 3.359375,-2.84375 3.15625,-2 2.765625,-1.28125 c -0.34375,0.6875 -0.71875,1.171875 -1.15625,1.171875 -0.328125,0 -0.53125,-0.296875 -0.53125,-1.21875 0,-0.421875 0.0625,-1 0.3125,-1.96875 z m 0,0"
               id="id-421ea938-d75c-4064-b298-64fb9aab1ada" />
          </g>
        </g>
      </g>
    </g>
    <g
       transform="matrix(0.7937475,0,0,0.7937475,117.65393,91.473295)"
       ns1:version="1.6.0"
       ns1:texconverter="pdflatex"
       ns1:pdfconverter="inkscape"
       ns1:text="$1$\n"
       ns1:preamble="C:\Users\Luis Hervella\AppData\Roaming\inkscape\extensions\textext\default_packages.tex"
       ns1:scale="3.0"
       ns1:alignment="middle center"
       ns1:stroke-to-path="0"
       ns1:inkscapeversion="1.1.1"
       ns1:jacobian_sqrt="1.05833"
       id="g8793">
      <defs
         id="id-a68fe42b-fa92-443e-9a1e-cacc339d18a1">
        <g
           id="id-19d4096e-ddbe-4dfc-acf8-e0bc85e1bca0">
          <symbol
             overflow="visible"
             id="id-18a5621f-12cf-4d85-8921-6473d37dadf1">
            <path
               style="stroke:none;stroke-width:0"
               d=""
               id="id-f27e5ee3-cfe1-4342-bf28-662db6a5f0ca" />
          </symbol>
          <symbol
             overflow="visible"
             id="id-bb47b94d-954f-4dc1-9749-d7dd949daf43">
            <path
               style="stroke:none;stroke-width:0"
               d="m 2.9375,-6.375 c 0,-0.25 0,-0.265625 -0.234375,-0.265625 C 2.078125,-6 1.203125,-6 0.890625,-6 v 0.3125 c 0.203125,0 0.78125,0 1.296875,-0.265625 v 5.171875 c 0,0.359375 -0.03125,0.46875 -0.921875,0.46875 h -0.3125 V 0 c 0.34375,-0.03125 1.203125,-0.03125 1.609375,-0.03125 0.390625,0 1.265625,0 1.609375,0.03125 v -0.3125 h -0.3125 c -0.90625,0 -0.921875,-0.109375 -0.921875,-0.46875 z m 0,0"
               id="id-ae3ba74e-76ef-42cf-815e-b331bdd9d1d2" />
          </symbol>
        </g>
      </defs>
      <g
         id="id-eccf815b-1974-461a-82f5-df21eaa67f5a"
         transform="translate(-149.603,-128.124)">
        <g
           style="fill:#000000;fill-opacity:1"
           id="id-a58ceaec-50c3-4920-a5bc-313a5c7a9cfe">
          <g
             transform="translate(148.712,134.765)"
             id="g8789">
            <path
               style="stroke:none;stroke-width:0"
               d="m 2.9375,-6.375 c 0,-0.25 0,-0.265625 -0.234375,-0.265625 C 2.078125,-6 1.203125,-6 0.890625,-6 v 0.3125 c 0.203125,0 0.78125,0 1.296875,-0.265625 v 5.171875 c 0,0.359375 -0.03125,0.46875 -0.921875,0.46875 h -0.3125 V 0 c 0.34375,-0.03125 1.203125,-0.03125 1.609375,-0.03125 0.390625,0 1.265625,0 1.609375,0.03125 v -0.3125 h -0.3125 c -0.90625,0 -0.921875,-0.109375 -0.921875,-0.46875 z m 0,0"
               id="id-ada527e4-b24b-4ab3-9cbf-58ba1556579d" />
          </g>
        </g>
      </g>
    </g>
    <g
       transform="matrix(0.793748,0,0,0.793748,97.573378,55.840878)"
       ns1:version="1.6.0"
       ns1:texconverter="pdflatex"
       ns1:pdfconverter="inkscape"
       ns1:text="$\\mathbf{u} = (u_{1},u_{2}) = (\\cos(\\theta), \\sin(\\theta))$\n\n"
       ns1:preamble="C:\Users\Luis Hervella\AppData\Roaming\inkscape\extensions\textext\default_packages.tex"
       ns1:scale="2.25"
       ns1:alignment="middle center"
       ns1:stroke-to-path="0"
       ns1:inkscapeversion="1.1.1"
       ns1:jacobian_sqrt="0.793748"
       style="fill:#ff0000;fill-opacity:1;stroke:#ff0000;stroke-width:0;stroke-opacity:1"
       id="g7604">
      <defs
         id="id-0fc77458-4888-453e-8083-b922bdd8fa02"
         style="fill:#ff0000;fill-opacity:1;stroke:#ff0000;stroke-width:0;stroke-opacity:1">
        <g
           id="id-2f0aa91d-4424-4006-a1de-93677ae247e4"
           style="fill:#ff0000;fill-opacity:1;stroke:#ff0000;stroke-width:0;stroke-opacity:1">
          <symbol
             overflow="visible"
             id="id-894d0cf2-ee9c-4026-b6df-3f57141ecfd2"
             style="fill:#ff0000;fill-opacity:1;stroke:#ff0000;stroke-width:0;stroke-opacity:1">
            <path
               style="fill:#ff0000;fill-opacity:1;stroke:#ff0000;stroke-width:0;stroke-opacity:1"
               d=""
               id="id-8bc0f22a-b044-4758-a135-606b08fa74c0" />
          </symbol>
          <symbol
             overflow="visible"
             id="id-550f2d72-6892-44f2-b63e-933e8d3bfc9c"
             style="fill:#ff0000;fill-opacity:1;stroke:#ff0000;stroke-width:0;stroke-opacity:1">
            <path
               style="fill:#ff0000;fill-opacity:1;stroke:#ff0000;stroke-width:0;stroke-opacity:1"
               d="M 4.359375,-0.71875 V 0.0625 L 6.125,0 v -0.46875 c -0.609375,0 -0.6875,0 -0.6875,-0.390625 v -3.625 L 3.625,-4.40625 v 0.46875 c 0.609375,0 0.6875,0 0.6875,0.390625 v 1.90625 c 0,0.8125 -0.515625,1.34375 -1.234375,1.34375 -0.78125,0 -0.8125,-0.25 -0.8125,-0.796875 v -3.390625 l -1.8125,0.078125 v 0.46875 c 0.609375,0 0.6875,0 0.6875,0.390625 v 2.328125 c 0,1.0625 0.796875,1.28125 1.796875,1.28125 0.25,0 0.96875,0 1.421875,-0.78125 z m 0,0"
               id="id-7835ab22-d146-40a4-9410-8b162e5d9f15" />
          </symbol>
          <symbol
             overflow="visible"
             id="id-edbc55b7-c612-4d26-8676-5faca97e63a4"
             style="fill:#ff0000;fill-opacity:1;stroke:#ff0000;stroke-width:0;stroke-opacity:1">
            <path
               style="fill:#ff0000;fill-opacity:1;stroke:#ff0000;stroke-width:0;stroke-opacity:1"
               d=""
               id="id-d9f220f9-542c-4d8d-8bb7-a2ca12589093" />
          </symbol>
          <symbol
             overflow="visible"
             id="id-b1093134-5161-41e7-b12d-b7786cba0e0d"
             style="fill:#ff0000;fill-opacity:1;stroke:#ff0000;stroke-width:0;stroke-opacity:1">
            <path
               style="fill:#ff0000;fill-opacity:1;stroke:#ff0000;stroke-width:0;stroke-opacity:1"
               d="m 6.84375,-3.265625 c 0.15625,0 0.34375,0 0.34375,-0.1875 C 7.1875,-3.65625 7,-3.65625 6.859375,-3.65625 h -5.96875 c -0.140625,0 -0.328125,0 -0.328125,0.203125 0,0.1875 0.1875,0.1875 0.328125,0.1875 z m 0.015625,1.9375 c 0.140625,0 0.328125,0 0.328125,-0.203125 0,-0.1875 -0.1875,-0.1875 -0.34375,-0.1875 H 0.890625 c -0.140625,0 -0.328125,0 -0.328125,0.1875 0,0.203125 0.1875,0.203125 0.328125,0.203125 z m 0,0"
               id="id-7ece947a-9f5a-43fc-977d-869389e06f12" />
          </symbol>
          <symbol
             overflow="visible"
             id="id-0fcf5aef-125c-41ed-ac01-b96a808f42bc"
             style="fill:#ff0000;fill-opacity:1;stroke:#ff0000;stroke-width:0;stroke-opacity:1">
            <path
               style="fill:#ff0000;fill-opacity:1;stroke:#ff0000;stroke-width:0;stroke-opacity:1"
               d="m 3.296875,2.390625 c 0,-0.03125 0,-0.046875 -0.171875,-0.21875 C 1.890625,0.921875 1.5625,-0.96875 1.5625,-2.5 c 0,-1.734375 0.375,-3.46875 1.609375,-4.703125 0.125,-0.125 0.125,-0.140625 0.125,-0.171875 0,-0.078125 -0.03125,-0.109375 -0.09375,-0.109375 -0.109375,0 -1,0.6875 -1.59375,1.953125 -0.5,1.09375 -0.625,2.203125 -0.625,3.03125 0,0.78125 0.109375,1.984375 0.65625,3.125 C 2.25,1.84375 3.09375,2.5 3.203125,2.5 c 0.0625,0 0.09375,-0.03125 0.09375,-0.109375 z m 0,0"
               id="id-f88432dc-378b-4341-916d-33cb04d1a400" />
          </symbol>
          <symbol
             overflow="visible"
             id="id-701ad2a3-fc01-45f0-9acb-b4906cfaf76e"
             style="fill:#ff0000;fill-opacity:1;stroke:#ff0000;stroke-width:0;stroke-opacity:1">
            <path
               style="fill:#ff0000;fill-opacity:1;stroke:#ff0000;stroke-width:0;stroke-opacity:1"
               d="m 2.875,-2.5 c 0,-0.765625 -0.109375,-1.96875 -0.65625,-3.109375 -0.59375,-1.21875 -1.453125,-1.875 -1.546875,-1.875 -0.0625,0 -0.109375,0.046875 -0.109375,0.109375 0,0.03125 0,0.046875 0.1875,0.234375 0.984375,0.984375 1.546875,2.5625 1.546875,4.640625 0,1.71875 -0.359375,3.46875 -1.59375,4.71875 C 0.5625,2.34375 0.5625,2.359375 0.5625,2.390625 0.5625,2.453125 0.609375,2.5 0.671875,2.5 0.765625,2.5 1.671875,1.8125 2.25,0.546875 2.765625,-0.546875 2.875,-1.65625 2.875,-2.5 Z m 0,0"
               id="id-c1ce5499-401d-4ff5-a62d-0790e881bf74" />
          </symbol>
          <symbol
             overflow="visible"
             id="id-7b13d01e-129b-4aa9-ba39-2c98ab5c5958"
             style="fill:#ff0000;fill-opacity:1;stroke:#ff0000;stroke-width:0;stroke-opacity:1">
            <path
               style="fill:#ff0000;fill-opacity:1;stroke:#ff0000;stroke-width:0;stroke-opacity:1"
               d="m 1.171875,-2.171875 c 0,-1.625 0.8125,-2.046875 1.34375,-2.046875 0.09375,0 0.71875,0.015625 1.0625,0.375 -0.40625,0.03125 -0.46875,0.328125 -0.46875,0.453125 0,0.265625 0.1875,0.453125 0.453125,0.453125 0.265625,0 0.46875,-0.15625 0.46875,-0.46875 0,-0.671875 -0.765625,-1.0625 -1.53125,-1.0625 -1.25,0 -2.15625,1.078125 -2.15625,2.3125 0,1.28125 0.984375,2.265625 2.140625,2.265625 1.328125,0 1.65625,-1.203125 1.65625,-1.296875 0,-0.09375 -0.109375,-0.09375 -0.140625,-0.09375 -0.078125,0 -0.109375,0.03125 -0.125,0.09375 -0.28125,0.921875 -0.9375,1.046875 -1.296875,1.046875 -0.53125,0 -1.40625,-0.421875 -1.40625,-2.03125 z m 0,0"
               id="id-92e38025-8e30-4f40-b5dc-feade08cd31d" />
          </symbol>
          <symbol
             overflow="visible"
             id="id-7659feb4-3d64-4c60-90b5-c53194d9b629"
             style="fill:#ff0000;fill-opacity:1;stroke:#ff0000;stroke-width:0;stroke-opacity:1">
            <path
               style="fill:#ff0000;fill-opacity:1;stroke:#ff0000;stroke-width:0;stroke-opacity:1"
               d="M 4.6875,-2.140625 C 4.6875,-3.40625 3.703125,-4.46875 2.5,-4.46875 c -1.25,0 -2.21875,1.09375 -2.21875,2.328125 0,1.296875 1.03125,2.25 2.203125,2.25 1.203125,0 2.203125,-0.984375 2.203125,-2.25 z m -2.1875,2 c -0.4375,0 -0.875,-0.203125 -1.140625,-0.671875 -0.25,-0.4375 -0.25,-1.046875 -0.25,-1.40625 0,-0.390625 0,-0.921875 0.234375,-1.359375 C 1.609375,-4.03125 2.078125,-4.25 2.484375,-4.25 c 0.4375,0 0.859375,0.21875 1.125,0.65625 0.265625,0.421875 0.265625,1 0.265625,1.375 0,0.359375 0,0.90625 -0.21875,1.34375 C 3.421875,-0.421875 2.984375,-0.140625 2.5,-0.140625 Z m 0,0"
               id="id-4132351a-9495-4fe9-bea0-325d6a240bdb" />
          </symbol>
          <symbol
             overflow="visible"
             id="id-22f2cbfb-c9fc-490f-9adc-3f54bcaff3cf"
             style="fill:#ff0000;fill-opacity:1;stroke:#ff0000;stroke-width:0;stroke-opacity:1">
            <path
               style="fill:#ff0000;fill-opacity:1;stroke:#ff0000;stroke-width:0;stroke-opacity:1"
               d="m 2.078125,-1.9375 c 0.21875,0.046875 1.03125,0.203125 1.03125,0.921875 0,0.5 -0.34375,0.90625 -1.125,0.90625 -0.84375,0 -1.203125,-0.5625 -1.390625,-1.421875 C 0.5625,-1.65625 0.5625,-1.6875 0.453125,-1.6875 c -0.125,0 -0.125,0.0625 -0.125,0.234375 V -0.125 c 0,0.171875 0,0.234375 0.109375,0.234375 0.046875,0 0.0625,-0.015625 0.25,-0.203125 0.015625,-0.015625 0.015625,-0.03125 0.203125,-0.21875 0.4375,0.40625 0.890625,0.421875 1.09375,0.421875 1.140625,0 1.609375,-0.671875 1.609375,-1.390625 0,-0.515625 -0.296875,-0.828125 -0.421875,-0.9375 C 2.84375,-2.546875 2.453125,-2.625 2.03125,-2.703125 1.46875,-2.8125 0.8125,-2.9375 0.8125,-3.515625 c 0,-0.359375 0.25,-0.765625 1.109375,-0.765625 1.09375,0 1.15625,0.90625 1.171875,1.203125 0,0.09375 0.09375,0.09375 0.109375,0.09375 0.140625,0 0.140625,-0.046875 0.140625,-0.234375 v -1.015625 c 0,-0.15625 0,-0.234375 -0.109375,-0.234375 -0.046875,0 -0.078125,0 -0.203125,0.125 -0.03125,0.03125 -0.125,0.125 -0.171875,0.15625 -0.375,-0.28125 -0.78125,-0.28125 -0.9375,-0.28125 -1.21875,0 -1.59375,0.671875 -1.59375,1.234375 0,0.34375 0.15625,0.625 0.421875,0.84375 0.328125,0.25 0.609375,0.3125 1.328125,0.453125 z m 0,0"
               id="id-519f5760-ba4d-44a5-b799-a1c41ff0f0eb" />
          </symbol>
          <symbol
             overflow="visible"
             id="id-edb14b2e-010f-4402-aec0-3e478e6cd1cb"
             style="fill:#ff0000;fill-opacity:1;stroke:#ff0000;stroke-width:0;stroke-opacity:1">
            <path
               style="fill:#ff0000;fill-opacity:1;stroke:#ff0000;stroke-width:0;stroke-opacity:1"
               d="M 1.765625,-4.40625 0.375,-4.296875 v 0.3125 c 0.640625,0 0.734375,0.0625 0.734375,0.546875 V -0.75 c 0,0.4375 -0.109375,0.4375 -0.78125,0.4375 V 0 C 0.640625,-0.015625 1.1875,-0.03125 1.421875,-0.03125 1.78125,-0.03125 2.125,-0.015625 2.46875,0 v -0.3125 c -0.671875,0 -0.703125,-0.046875 -0.703125,-0.4375 z m 0.03125,-1.734375 c 0,-0.3125 -0.234375,-0.53125 -0.515625,-0.53125 -0.3125,0 -0.53125,0.265625 -0.53125,0.53125 0,0.265625 0.21875,0.53125 0.53125,0.53125 0.28125,0 0.515625,-0.21875 0.515625,-0.53125 z m 0,0"
               id="id-42e5ef68-2e75-4b15-9db9-53e9ed16a616" />
          </symbol>
          <symbol
             overflow="visible"
             id="id-b33d031f-cc42-42d1-90a5-e50070362ca5"
             style="fill:#ff0000;fill-opacity:1;stroke:#ff0000;stroke-width:0;stroke-opacity:1">
            <path
               style="fill:#ff0000;fill-opacity:1;stroke:#ff0000;stroke-width:0;stroke-opacity:1"
               d="M 1.09375,-3.421875 V -0.75 c 0,0.4375 -0.109375,0.4375 -0.78125,0.4375 V 0 c 0.359375,-0.015625 0.859375,-0.03125 1.140625,-0.03125 0.25,0 0.765625,0.015625 1.109375,0.03125 v -0.3125 c -0.671875,0 -0.78125,0 -0.78125,-0.4375 V -2.59375 C 1.78125,-3.625 2.5,-4.1875 3.125,-4.1875 c 0.640625,0 0.75,0.53125 0.75,1.109375 V -0.75 c 0,0.4375 -0.109375,0.4375 -0.78125,0.4375 V 0 c 0.34375,-0.015625 0.859375,-0.03125 1.125,-0.03125 0.25,0 0.78125,0.015625 1.109375,0.03125 v -0.3125 c -0.515625,0 -0.765625,0 -0.765625,-0.296875 v -1.90625 c 0,-0.859375 0,-1.15625 -0.3125,-1.515625 -0.140625,-0.171875 -0.46875,-0.375 -1.046875,-0.375 C 2.46875,-4.40625 2,-3.984375 1.71875,-3.359375 V -4.40625 L 0.3125,-4.296875 v 0.3125 c 0.703125,0 0.78125,0.0625 0.78125,0.5625 z m 0,0"
               id="id-2091302a-1754-42b2-a6a6-f52fa21f84e7" />
          </symbol>
          <symbol
             overflow="visible"
             id="id-4ba66bf7-89ec-4094-a700-7f70d6429c4c"
             style="fill:#ff0000;fill-opacity:1;stroke:#ff0000;stroke-width:0;stroke-opacity:1">
            <path
               style="fill:#ff0000;fill-opacity:1;stroke:#ff0000;stroke-width:0;stroke-opacity:1"
               d=""
               id="id-1ff73c64-837a-496b-ab02-dfb3984364ba" />
          </symbol>
          <symbol
             overflow="visible"
             id="id-be651df0-9663-4567-a4e9-a0aa2a7dfef6"
             style="fill:#ff0000;fill-opacity:1;stroke:#ff0000;stroke-width:0;stroke-opacity:1">
            <path
               style="fill:#ff0000;fill-opacity:1;stroke:#ff0000;stroke-width:0;stroke-opacity:1"
               d="M 3.484375,-0.5625 C 3.59375,-0.15625 3.953125,0.109375 4.375,0.109375 4.71875,0.109375 4.953125,-0.125 5.109375,-0.4375 5.28125,-0.796875 5.40625,-1.40625 5.40625,-1.421875 c 0,-0.109375 -0.078125,-0.109375 -0.109375,-0.109375 -0.109375,0 -0.109375,0.046875 -0.140625,0.1875 -0.140625,0.5625 -0.328125,1.234375 -0.75,1.234375 -0.203125,0 -0.3125,-0.125 -0.3125,-0.453125 0,-0.21875 0.125,-0.6875 0.203125,-1.046875 L 4.578125,-2.6875 C 4.609375,-2.828125 4.703125,-3.203125 4.75,-3.359375 4.796875,-3.59375 4.890625,-3.96875 4.890625,-4.03125 c 0,-0.171875 -0.140625,-0.265625 -0.28125,-0.265625 -0.046875,0 -0.3125,0.015625 -0.390625,0.34375 -0.1875,0.734375 -0.625,2.484375 -0.75,3 -0.015625,0.046875 -0.40625,0.84375 -1.140625,0.84375 -0.515625,0 -0.609375,-0.453125 -0.609375,-0.8125 0,-0.5625 0.28125,-1.34375 0.53125,-2.03125 0.125,-0.3125 0.171875,-0.453125 0.171875,-0.640625 0,-0.4375 -0.3125,-0.8125 -0.8125,-0.8125 -0.953125,0 -1.3125,1.453125 -1.3125,1.53125 0,0.109375 0.09375,0.109375 0.109375,0.109375 0.109375,0 0.109375,-0.03125 0.15625,-0.1875 0.25,-0.859375 0.640625,-1.234375 1.015625,-1.234375 0.09375,0 0.25,0.015625 0.25,0.328125 0,0.234375 -0.109375,0.53125 -0.171875,0.671875 -0.375,1 -0.578125,1.609375 -0.578125,2.09375 0,0.953125 0.6875,1.203125 1.21875,1.203125 0.65625,0 1.015625,-0.453125 1.1875,-0.671875 z m 0,0"
               id="id-18e63602-9748-40b2-896d-af33a805462c" />
          </symbol>
          <symbol
             overflow="visible"
             id="id-b7069319-d846-4cb5-8238-7dec80fac314"
             style="fill:#ff0000;fill-opacity:1;stroke:#ff0000;stroke-width:0;stroke-opacity:1">
            <path
               style="fill:#ff0000;fill-opacity:1;stroke:#ff0000;stroke-width:0;stroke-opacity:1"
               d="m 2.03125,-0.015625 c 0,-0.65625 -0.25,-1.046875 -0.640625,-1.046875 -0.328125,0 -0.53125,0.25 -0.53125,0.53125 C 0.859375,-0.265625 1.0625,0 1.390625,0 1.5,0 1.640625,-0.046875 1.734375,-0.125 1.765625,-0.15625 1.78125,-0.15625 1.78125,-0.15625 c 0.015625,0 0.015625,0 0.015625,0.140625 0,0.75 -0.34375,1.34375 -0.671875,1.671875 -0.109375,0.109375 -0.109375,0.125 -0.109375,0.15625 0,0.078125 0.046875,0.109375 0.09375,0.109375 0.109375,0 0.921875,-0.765625 0.921875,-1.9375 z m 0,0"
               id="id-f33c2bdd-4954-4804-b212-f6ae11c80f5f" />
          </symbol>
          <symbol
             overflow="visible"
             id="id-7e3c7b34-179d-4ec8-8593-24a6c37c7af0"
             style="fill:#ff0000;fill-opacity:1;stroke:#ff0000;stroke-width:0;stroke-opacity:1">
            <path
               style="fill:#ff0000;fill-opacity:1;stroke:#ff0000;stroke-width:0;stroke-opacity:1"
               d="m 4.53125,-4.984375 c 0,-0.65625 -0.171875,-2.046875 -1.1875,-2.046875 -1.390625,0 -2.921875,2.8125 -2.921875,5.09375 0,0.9375 0.28125,2.046875 1.1875,2.046875 1.40625,0 2.921875,-2.859375 2.921875,-5.09375 z M 1.46875,-3.625 C 1.640625,-4.25 1.84375,-5.046875 2.25,-5.765625 2.515625,-6.25 2.875,-6.8125 3.328125,-6.8125 c 0.484375,0 0.546875,0.640625 0.546875,1.203125 0,0.5 -0.078125,1 -0.3125,1.984375 z m 2,0.328125 C 3.359375,-2.84375 3.15625,-2 2.765625,-1.28125 c -0.34375,0.6875 -0.71875,1.171875 -1.15625,1.171875 -0.328125,0 -0.53125,-0.296875 -0.53125,-1.21875 0,-0.421875 0.0625,-1 0.3125,-1.96875 z m 0,0"
               id="id-c9467c48-5082-467f-8f0d-4bb46582f513" />
          </symbol>
          <symbol
             overflow="visible"
             id="id-9e71cbd0-b824-4122-b373-41e837056b54"
             style="fill:#ff0000;fill-opacity:1;stroke:#ff0000;stroke-width:0;stroke-opacity:1">
            <path
               style="fill:#ff0000;fill-opacity:1;stroke:#ff0000;stroke-width:0;stroke-opacity:1"
               d=""
               id="id-e5e0b8c8-031c-4c56-a94e-9d51babfd080" />
          </symbol>
          <symbol
             overflow="visible"
             id="id-ee0682a3-ffb2-44e7-adeb-a7e9df9d9d58"
             style="fill:#ff0000;fill-opacity:1;stroke:#ff0000;stroke-width:0;stroke-opacity:1">
            <path
               style="fill:#ff0000;fill-opacity:1;stroke:#ff0000;stroke-width:0;stroke-opacity:1"
               d="m 2.328125,-4.4375 c 0,-0.1875 0,-0.1875 -0.203125,-0.1875 -0.453125,0.4375 -1.078125,0.4375 -1.359375,0.4375 v 0.25 c 0.15625,0 0.625,0 1,-0.1875 v 3.546875 c 0,0.234375 0,0.328125 -0.6875,0.328125 H 0.8125 V 0 c 0.125,0 0.984375,-0.03125 1.234375,-0.03125 0.21875,0 1.09375,0.03125 1.25,0.03125 V -0.25 H 3.03125 c -0.703125,0 -0.703125,-0.09375 -0.703125,-0.328125 z m 0,0"
               id="id-170db0fe-7b40-4b7e-bcca-d7b7ea219113" />
          </symbol>
          <symbol
             overflow="visible"
             id="id-5cfa90e0-dc59-4df2-a2c1-88437a26edc6"
             style="fill:#ff0000;fill-opacity:1;stroke:#ff0000;stroke-width:0;stroke-opacity:1">
            <path
               style="fill:#ff0000;fill-opacity:1;stroke:#ff0000;stroke-width:0;stroke-opacity:1"
               d="M 3.515625,-1.265625 H 3.28125 c -0.015625,0.15625 -0.09375,0.5625 -0.1875,0.625 C 3.046875,-0.59375 2.515625,-0.59375 2.40625,-0.59375 H 1.125 c 0.734375,-0.640625 0.984375,-0.84375 1.390625,-1.171875 0.515625,-0.40625 1,-0.84375 1,-1.5 0,-0.84375 -0.734375,-1.359375 -1.625,-1.359375 -0.859375,0 -1.453125,0.609375 -1.453125,1.25 0,0.34375 0.296875,0.390625 0.375,0.390625 0.15625,0 0.359375,-0.125 0.359375,-0.375 0,-0.125 -0.046875,-0.375 -0.40625,-0.375 C 0.984375,-4.21875 1.453125,-4.375 1.78125,-4.375 c 0.703125,0 1.0625,0.546875 1.0625,1.109375 0,0.609375 -0.4375,1.078125 -0.65625,1.328125 L 0.515625,-0.265625 C 0.4375,-0.203125 0.4375,-0.1875 0.4375,0 h 2.875 z m 0,0"
               id="id-39a8192f-2011-4f2a-8129-493c4448e0c5" />
          </symbol>
        </g>
      </defs>
      <g
         id="id-238fd1a2-313f-4d0d-b062-a5afe46b92e1"
         transform="translate(-149.165,-127.281)"
         style="fill:#ff0000;fill-opacity:1;stroke:#ff0000;stroke-width:0;stroke-opacity:1">
        <g
           style="fill:#ff0000;fill-opacity:1;stroke:#ff0000;stroke-width:0;stroke-opacity:1"
           id="id-9e33b1e8-103a-40bd-a8b3-e792e9145b80">
          <g
             transform="translate(148.712,134.765)"
             style="fill:#ff0000;fill-opacity:1;stroke:#ff0000;stroke-width:0;stroke-opacity:1"
             id="g9459">
            <path
               style="fill:#ff0000;fill-opacity:1;stroke:#ff0000;stroke-width:0;stroke-opacity:1"
               d="M 4.359375,-0.71875 V 0.0625 L 6.125,0 v -0.46875 c -0.609375,0 -0.6875,0 -0.6875,-0.390625 v -3.625 L 3.625,-4.40625 v 0.46875 c 0.609375,0 0.6875,0 0.6875,0.390625 v 1.90625 c 0,0.8125 -0.515625,1.34375 -1.234375,1.34375 -0.78125,0 -0.8125,-0.25 -0.8125,-0.796875 v -3.390625 l -1.8125,0.078125 v 0.46875 c 0.609375,0 0.6875,0 0.6875,0.390625 v 2.328125 c 0,1.0625 0.796875,1.28125 1.796875,1.28125 0.25,0 0.96875,0 1.421875,-0.78125 z m 0,0"
               id="id-dc68599b-e07f-483e-89b0-be32463c3666" />
          </g>
        </g>
        <g
           style="fill:#ff0000;fill-opacity:1;stroke:#ff0000;stroke-width:0;stroke-opacity:1"
           id="id-95f0dfcb-b439-47f8-bb27-d327e2a83811">
          <g
             transform="translate(157.845,134.765)"
             style="fill:#ff0000;fill-opacity:1;stroke:#ff0000;stroke-width:0;stroke-opacity:1"
             id="g9463">
            <path
               style="fill:#ff0000;fill-opacity:1;stroke:#ff0000;stroke-width:0;stroke-opacity:1"
               d="m 6.84375,-3.265625 c 0.15625,0 0.34375,0 0.34375,-0.1875 C 7.1875,-3.65625 7,-3.65625 6.859375,-3.65625 h -5.96875 c -0.140625,0 -0.328125,0 -0.328125,0.203125 0,0.1875 0.1875,0.1875 0.328125,0.1875 z m 0.015625,1.9375 c 0.140625,0 0.328125,0 0.328125,-0.203125 0,-0.1875 -0.1875,-0.1875 -0.34375,-0.1875 H 0.890625 c -0.140625,0 -0.328125,0 -0.328125,0.1875 0,0.203125 0.1875,0.203125 0.328125,0.203125 z m 0,0"
               id="id-0101ba90-c60b-4ae1-ae19-aa4a288b7c54" />
          </g>
        </g>
        <g
           style="fill:#ff0000;fill-opacity:1;stroke:#ff0000;stroke-width:0;stroke-opacity:1"
           id="id-7ad88072-504f-46de-8bd5-5c2308199ee1">
          <g
             transform="translate(168.364,134.765)"
             style="fill:#ff0000;fill-opacity:1;stroke:#ff0000;stroke-width:0;stroke-opacity:1"
             id="g9467">
            <path
               style="fill:#ff0000;fill-opacity:1;stroke:#ff0000;stroke-width:0;stroke-opacity:1"
               d="m 3.296875,2.390625 c 0,-0.03125 0,-0.046875 -0.171875,-0.21875 C 1.890625,0.921875 1.5625,-0.96875 1.5625,-2.5 c 0,-1.734375 0.375,-3.46875 1.609375,-4.703125 0.125,-0.125 0.125,-0.140625 0.125,-0.171875 0,-0.078125 -0.03125,-0.109375 -0.09375,-0.109375 -0.109375,0 -1,0.6875 -1.59375,1.953125 -0.5,1.09375 -0.625,2.203125 -0.625,3.03125 0,0.78125 0.109375,1.984375 0.65625,3.125 C 2.25,1.84375 3.09375,2.5 3.203125,2.5 c 0.0625,0 0.09375,-0.03125 0.09375,-0.109375 z m 0,0"
               id="id-a3db51a5-c8ff-4c56-ba8a-1f13aa896fc0" />
          </g>
        </g>
        <g
           style="fill:#ff0000;fill-opacity:1;stroke:#ff0000;stroke-width:0;stroke-opacity:1"
           id="id-a551d875-4ad3-4f7a-9a66-0185f20c24e6">
          <g
             transform="translate(172.235,134.765)"
             style="fill:#ff0000;fill-opacity:1;stroke:#ff0000;stroke-width:0;stroke-opacity:1"
             id="g9471">
            <path
               style="fill:#ff0000;fill-opacity:1;stroke:#ff0000;stroke-width:0;stroke-opacity:1"
               d="M 3.484375,-0.5625 C 3.59375,-0.15625 3.953125,0.109375 4.375,0.109375 4.71875,0.109375 4.953125,-0.125 5.109375,-0.4375 5.28125,-0.796875 5.40625,-1.40625 5.40625,-1.421875 c 0,-0.109375 -0.078125,-0.109375 -0.109375,-0.109375 -0.109375,0 -0.109375,0.046875 -0.140625,0.1875 -0.140625,0.5625 -0.328125,1.234375 -0.75,1.234375 -0.203125,0 -0.3125,-0.125 -0.3125,-0.453125 0,-0.21875 0.125,-0.6875 0.203125,-1.046875 L 4.578125,-2.6875 C 4.609375,-2.828125 4.703125,-3.203125 4.75,-3.359375 4.796875,-3.59375 4.890625,-3.96875 4.890625,-4.03125 c 0,-0.171875 -0.140625,-0.265625 -0.28125,-0.265625 -0.046875,0 -0.3125,0.015625 -0.390625,0.34375 -0.1875,0.734375 -0.625,2.484375 -0.75,3 -0.015625,0.046875 -0.40625,0.84375 -1.140625,0.84375 -0.515625,0 -0.609375,-0.453125 -0.609375,-0.8125 0,-0.5625 0.28125,-1.34375 0.53125,-2.03125 0.125,-0.3125 0.171875,-0.453125 0.171875,-0.640625 0,-0.4375 -0.3125,-0.8125 -0.8125,-0.8125 -0.953125,0 -1.3125,1.453125 -1.3125,1.53125 0,0.109375 0.09375,0.109375 0.109375,0.109375 0.109375,0 0.109375,-0.03125 0.15625,-0.1875 0.25,-0.859375 0.640625,-1.234375 1.015625,-1.234375 0.09375,0 0.25,0.015625 0.25,0.328125 0,0.234375 -0.109375,0.53125 -0.171875,0.671875 -0.375,1 -0.578125,1.609375 -0.578125,2.09375 0,0.953125 0.6875,1.203125 1.21875,1.203125 0.65625,0 1.015625,-0.453125 1.1875,-0.671875 z m 0,0"
               id="id-b78c4c8d-67e0-44cf-8851-f730341de6f1" />
          </g>
        </g>
        <g
           style="fill:#ff0000;fill-opacity:1;stroke:#ff0000;stroke-width:0;stroke-opacity:1"
           id="id-74e1f100-6fdf-46de-b47f-e4e525cd3bc1">
          <g
             transform="translate(177.938,136.259)"
             style="fill:#ff0000;fill-opacity:1;stroke:#ff0000;stroke-width:0;stroke-opacity:1"
             id="g9475">
            <path
               style="fill:#ff0000;fill-opacity:1;stroke:#ff0000;stroke-width:0;stroke-opacity:1"
               d="m 2.328125,-4.4375 c 0,-0.1875 0,-0.1875 -0.203125,-0.1875 -0.453125,0.4375 -1.078125,0.4375 -1.359375,0.4375 v 0.25 c 0.15625,0 0.625,0 1,-0.1875 v 3.546875 c 0,0.234375 0,0.328125 -0.6875,0.328125 H 0.8125 V 0 c 0.125,0 0.984375,-0.03125 1.234375,-0.03125 0.21875,0 1.09375,0.03125 1.25,0.03125 V -0.25 H 3.03125 c -0.703125,0 -0.703125,-0.09375 -0.703125,-0.328125 z m 0,0"
               id="id-49749ab7-4563-4856-97ae-7f3a951e59c4" />
          </g>
        </g>
        <g
           style="fill:#ff0000;fill-opacity:1;stroke:#ff0000;stroke-width:0;stroke-opacity:1"
           id="id-7fa68f1f-22f6-4304-a1f2-ff2d159e601c">
          <g
             transform="translate(182.408,134.765)"
             style="fill:#ff0000;fill-opacity:1;stroke:#ff0000;stroke-width:0;stroke-opacity:1"
             id="g9479">
            <path
               style="fill:#ff0000;fill-opacity:1;stroke:#ff0000;stroke-width:0;stroke-opacity:1"
               d="m 2.03125,-0.015625 c 0,-0.65625 -0.25,-1.046875 -0.640625,-1.046875 -0.328125,0 -0.53125,0.25 -0.53125,0.53125 C 0.859375,-0.265625 1.0625,0 1.390625,0 1.5,0 1.640625,-0.046875 1.734375,-0.125 1.765625,-0.15625 1.78125,-0.15625 1.78125,-0.15625 c 0.015625,0 0.015625,0 0.015625,0.140625 0,0.75 -0.34375,1.34375 -0.671875,1.671875 -0.109375,0.109375 -0.109375,0.125 -0.109375,0.15625 0,0.078125 0.046875,0.109375 0.09375,0.109375 0.109375,0 0.921875,-0.765625 0.921875,-1.9375 z m 0,0"
               id="id-3cdf25bc-dc1a-442d-9ce5-60d837d3d518" />
          </g>
        </g>
        <g
           style="fill:#ff0000;fill-opacity:1;stroke:#ff0000;stroke-width:0;stroke-opacity:1"
           id="id-9abeefb3-bd56-489e-996a-420fbb656a9d">
          <g
             transform="translate(186.839,134.765)"
             style="fill:#ff0000;fill-opacity:1;stroke:#ff0000;stroke-width:0;stroke-opacity:1"
             id="g9483">
            <path
               style="fill:#ff0000;fill-opacity:1;stroke:#ff0000;stroke-width:0;stroke-opacity:1"
               d="M 3.484375,-0.5625 C 3.59375,-0.15625 3.953125,0.109375 4.375,0.109375 4.71875,0.109375 4.953125,-0.125 5.109375,-0.4375 5.28125,-0.796875 5.40625,-1.40625 5.40625,-1.421875 c 0,-0.109375 -0.078125,-0.109375 -0.109375,-0.109375 -0.109375,0 -0.109375,0.046875 -0.140625,0.1875 -0.140625,0.5625 -0.328125,1.234375 -0.75,1.234375 -0.203125,0 -0.3125,-0.125 -0.3125,-0.453125 0,-0.21875 0.125,-0.6875 0.203125,-1.046875 L 4.578125,-2.6875 C 4.609375,-2.828125 4.703125,-3.203125 4.75,-3.359375 4.796875,-3.59375 4.890625,-3.96875 4.890625,-4.03125 c 0,-0.171875 -0.140625,-0.265625 -0.28125,-0.265625 -0.046875,0 -0.3125,0.015625 -0.390625,0.34375 -0.1875,0.734375 -0.625,2.484375 -0.75,3 -0.015625,0.046875 -0.40625,0.84375 -1.140625,0.84375 -0.515625,0 -0.609375,-0.453125 -0.609375,-0.8125 0,-0.5625 0.28125,-1.34375 0.53125,-2.03125 0.125,-0.3125 0.171875,-0.453125 0.171875,-0.640625 0,-0.4375 -0.3125,-0.8125 -0.8125,-0.8125 -0.953125,0 -1.3125,1.453125 -1.3125,1.53125 0,0.109375 0.09375,0.109375 0.109375,0.109375 0.109375,0 0.109375,-0.03125 0.15625,-0.1875 0.25,-0.859375 0.640625,-1.234375 1.015625,-1.234375 0.09375,0 0.25,0.015625 0.25,0.328125 0,0.234375 -0.109375,0.53125 -0.171875,0.671875 -0.375,1 -0.578125,1.609375 -0.578125,2.09375 0,0.953125 0.6875,1.203125 1.21875,1.203125 0.65625,0 1.015625,-0.453125 1.1875,-0.671875 z m 0,0"
               id="id-5df67d1a-11e8-4d1e-ac86-551df3fd08ed" />
          </g>
        </g>
        <g
           style="fill:#ff0000;fill-opacity:1;stroke:#ff0000;stroke-width:0;stroke-opacity:1"
           id="id-7086f4f4-a6b4-4e4b-8423-ffdc11d4eb37">
          <g
             transform="translate(192.539,136.259)"
             style="fill:#ff0000;fill-opacity:1;stroke:#ff0000;stroke-width:0;stroke-opacity:1"
             id="g9487">
            <path
               style="fill:#ff0000;fill-opacity:1;stroke:#ff0000;stroke-width:0;stroke-opacity:1"
               d="M 3.515625,-1.265625 H 3.28125 c -0.015625,0.15625 -0.09375,0.5625 -0.1875,0.625 C 3.046875,-0.59375 2.515625,-0.59375 2.40625,-0.59375 H 1.125 c 0.734375,-0.640625 0.984375,-0.84375 1.390625,-1.171875 0.515625,-0.40625 1,-0.84375 1,-1.5 0,-0.84375 -0.734375,-1.359375 -1.625,-1.359375 -0.859375,0 -1.453125,0.609375 -1.453125,1.25 0,0.34375 0.296875,0.390625 0.375,0.390625 0.15625,0 0.359375,-0.125 0.359375,-0.375 0,-0.125 -0.046875,-0.375 -0.40625,-0.375 C 0.984375,-4.21875 1.453125,-4.375 1.78125,-4.375 c 0.703125,0 1.0625,0.546875 1.0625,1.109375 0,0.609375 -0.4375,1.078125 -0.65625,1.328125 L 0.515625,-0.265625 C 0.4375,-0.203125 0.4375,-0.1875 0.4375,0 h 2.875 z m 0,0"
               id="id-bff2e8ec-2d0e-4571-a8ac-15ebd707c8d4" />
          </g>
        </g>
        <g
           style="fill:#ff0000;fill-opacity:1;stroke:#ff0000;stroke-width:0;stroke-opacity:1"
           id="id-41b86c58-82d5-4a9e-8442-b0347fe34a9f">
          <g
             transform="translate(197.008,134.765)"
             style="fill:#ff0000;fill-opacity:1;stroke:#ff0000;stroke-width:0;stroke-opacity:1"
             id="g9491">
            <path
               style="fill:#ff0000;fill-opacity:1;stroke:#ff0000;stroke-width:0;stroke-opacity:1"
               d="m 2.875,-2.5 c 0,-0.765625 -0.109375,-1.96875 -0.65625,-3.109375 -0.59375,-1.21875 -1.453125,-1.875 -1.546875,-1.875 -0.0625,0 -0.109375,0.046875 -0.109375,0.109375 0,0.03125 0,0.046875 0.1875,0.234375 0.984375,0.984375 1.546875,2.5625 1.546875,4.640625 0,1.71875 -0.359375,3.46875 -1.59375,4.71875 C 0.5625,2.34375 0.5625,2.359375 0.5625,2.390625 0.5625,2.453125 0.609375,2.5 0.671875,2.5 0.765625,2.5 1.671875,1.8125 2.25,0.546875 2.765625,-0.546875 2.875,-1.65625 2.875,-2.5 Z m 0,0"
               id="id-c8f5108b-915c-48fe-af58-15df01c15963" />
          </g>
        </g>
        <g
           style="fill:#ff0000;fill-opacity:1;stroke:#ff0000;stroke-width:0;stroke-opacity:1"
           id="id-53623900-b56f-4b84-9f8a-c27f683fd23f">
          <g
             transform="translate(203.652,134.765)"
             style="fill:#ff0000;fill-opacity:1;stroke:#ff0000;stroke-width:0;stroke-opacity:1"
             id="g9495">
            <path
               style="fill:#ff0000;fill-opacity:1;stroke:#ff0000;stroke-width:0;stroke-opacity:1"
               d="m 6.84375,-3.265625 c 0.15625,0 0.34375,0 0.34375,-0.1875 C 7.1875,-3.65625 7,-3.65625 6.859375,-3.65625 h -5.96875 c -0.140625,0 -0.328125,0 -0.328125,0.203125 0,0.1875 0.1875,0.1875 0.328125,0.1875 z m 0.015625,1.9375 c 0.140625,0 0.328125,0 0.328125,-0.203125 0,-0.1875 -0.1875,-0.1875 -0.34375,-0.1875 H 0.890625 c -0.140625,0 -0.328125,0 -0.328125,0.1875 0,0.203125 0.1875,0.203125 0.328125,0.203125 z m 0,0"
               id="id-8febd22d-5b13-4af8-9b9e-0559e8ee90e3" />
          </g>
        </g>
        <g
           style="fill:#ff0000;fill-opacity:1;stroke:#ff0000;stroke-width:0;stroke-opacity:1"
           id="id-145e7a04-2b74-4e07-81e0-999e2ca3ba14">
          <g
             transform="translate(214.171,134.765)"
             style="fill:#ff0000;fill-opacity:1;stroke:#ff0000;stroke-width:0;stroke-opacity:1"
             id="g9499">
            <path
               style="fill:#ff0000;fill-opacity:1;stroke:#ff0000;stroke-width:0;stroke-opacity:1"
               d="m 3.296875,2.390625 c 0,-0.03125 0,-0.046875 -0.171875,-0.21875 C 1.890625,0.921875 1.5625,-0.96875 1.5625,-2.5 c 0,-1.734375 0.375,-3.46875 1.609375,-4.703125 0.125,-0.125 0.125,-0.140625 0.125,-0.171875 0,-0.078125 -0.03125,-0.109375 -0.09375,-0.109375 -0.109375,0 -1,0.6875 -1.59375,1.953125 -0.5,1.09375 -0.625,2.203125 -0.625,3.03125 0,0.78125 0.109375,1.984375 0.65625,3.125 C 2.25,1.84375 3.09375,2.5 3.203125,2.5 c 0.0625,0 0.09375,-0.03125 0.09375,-0.109375 z m 0,0"
               id="id-e5748517-a7c5-4c36-98cd-c3656ce3286c" />
          </g>
          <g
             transform="translate(218.045,134.765)"
             style="fill:#ff0000;fill-opacity:1;stroke:#ff0000;stroke-width:0;stroke-opacity:1"
             id="g9502">
            <path
               style="fill:#ff0000;fill-opacity:1;stroke:#ff0000;stroke-width:0;stroke-opacity:1"
               d="m 1.171875,-2.171875 c 0,-1.625 0.8125,-2.046875 1.34375,-2.046875 0.09375,0 0.71875,0.015625 1.0625,0.375 -0.40625,0.03125 -0.46875,0.328125 -0.46875,0.453125 0,0.265625 0.1875,0.453125 0.453125,0.453125 0.265625,0 0.46875,-0.15625 0.46875,-0.46875 0,-0.671875 -0.765625,-1.0625 -1.53125,-1.0625 -1.25,0 -2.15625,1.078125 -2.15625,2.3125 0,1.28125 0.984375,2.265625 2.140625,2.265625 1.328125,0 1.65625,-1.203125 1.65625,-1.296875 0,-0.09375 -0.109375,-0.09375 -0.140625,-0.09375 -0.078125,0 -0.109375,0.03125 -0.125,0.09375 -0.28125,0.921875 -0.9375,1.046875 -1.296875,1.046875 -0.53125,0 -1.40625,-0.421875 -1.40625,-2.03125 z m 0,0"
               id="id-fc4f80a1-4e21-42b8-b381-31b0264f8619" />
          </g>
          <g
             transform="translate(222.472,134.765)"
             style="fill:#ff0000;fill-opacity:1;stroke:#ff0000;stroke-width:0;stroke-opacity:1"
             id="g9505">
            <path
               style="fill:#ff0000;fill-opacity:1;stroke:#ff0000;stroke-width:0;stroke-opacity:1"
               d="M 4.6875,-2.140625 C 4.6875,-3.40625 3.703125,-4.46875 2.5,-4.46875 c -1.25,0 -2.21875,1.09375 -2.21875,2.328125 0,1.296875 1.03125,2.25 2.203125,2.25 1.203125,0 2.203125,-0.984375 2.203125,-2.25 z m -2.1875,2 c -0.4375,0 -0.875,-0.203125 -1.140625,-0.671875 -0.25,-0.4375 -0.25,-1.046875 -0.25,-1.40625 0,-0.390625 0,-0.921875 0.234375,-1.359375 C 1.609375,-4.03125 2.078125,-4.25 2.484375,-4.25 c 0.4375,0 0.859375,0.21875 1.125,0.65625 0.265625,0.421875 0.265625,1 0.265625,1.375 0,0.359375 0,0.90625 -0.21875,1.34375 C 3.421875,-0.421875 2.984375,-0.140625 2.5,-0.140625 Z m 0,0"
               id="id-ac7e492b-f476-4773-8844-248d171b9fba" />
          </g>
          <g
             transform="translate(227.454,134.765)"
             style="fill:#ff0000;fill-opacity:1;stroke:#ff0000;stroke-width:0;stroke-opacity:1"
             id="g9508">
            <path
               style="fill:#ff0000;fill-opacity:1;stroke:#ff0000;stroke-width:0;stroke-opacity:1"
               d="m 2.078125,-1.9375 c 0.21875,0.046875 1.03125,0.203125 1.03125,0.921875 0,0.5 -0.34375,0.90625 -1.125,0.90625 -0.84375,0 -1.203125,-0.5625 -1.390625,-1.421875 C 0.5625,-1.65625 0.5625,-1.6875 0.453125,-1.6875 c -0.125,0 -0.125,0.0625 -0.125,0.234375 V -0.125 c 0,0.171875 0,0.234375 0.109375,0.234375 0.046875,0 0.0625,-0.015625 0.25,-0.203125 0.015625,-0.015625 0.015625,-0.03125 0.203125,-0.21875 0.4375,0.40625 0.890625,0.421875 1.09375,0.421875 1.140625,0 1.609375,-0.671875 1.609375,-1.390625 0,-0.515625 -0.296875,-0.828125 -0.421875,-0.9375 C 2.84375,-2.546875 2.453125,-2.625 2.03125,-2.703125 1.46875,-2.8125 0.8125,-2.9375 0.8125,-3.515625 c 0,-0.359375 0.25,-0.765625 1.109375,-0.765625 1.09375,0 1.15625,0.90625 1.171875,1.203125 0,0.09375 0.09375,0.09375 0.109375,0.09375 0.140625,0 0.140625,-0.046875 0.140625,-0.234375 v -1.015625 c 0,-0.15625 0,-0.234375 -0.109375,-0.234375 -0.046875,0 -0.078125,0 -0.203125,0.125 -0.03125,0.03125 -0.125,0.125 -0.171875,0.15625 -0.375,-0.28125 -0.78125,-0.28125 -0.9375,-0.28125 -1.21875,0 -1.59375,0.671875 -1.59375,1.234375 0,0.34375 0.15625,0.625 0.421875,0.84375 0.328125,0.25 0.609375,0.3125 1.328125,0.453125 z m 0,0"
               id="id-23c5aa34-179c-40aa-968f-ea32524b3936" />
          </g>
          <g
             transform="translate(231.383,134.765)"
             style="fill:#ff0000;fill-opacity:1;stroke:#ff0000;stroke-width:0;stroke-opacity:1"
             id="g9511">
            <path
               style="fill:#ff0000;fill-opacity:1;stroke:#ff0000;stroke-width:0;stroke-opacity:1"
               d="m 3.296875,2.390625 c 0,-0.03125 0,-0.046875 -0.171875,-0.21875 C 1.890625,0.921875 1.5625,-0.96875 1.5625,-2.5 c 0,-1.734375 0.375,-3.46875 1.609375,-4.703125 0.125,-0.125 0.125,-0.140625 0.125,-0.171875 0,-0.078125 -0.03125,-0.109375 -0.09375,-0.109375 -0.109375,0 -1,0.6875 -1.59375,1.953125 -0.5,1.09375 -0.625,2.203125 -0.625,3.03125 0,0.78125 0.109375,1.984375 0.65625,3.125 C 2.25,1.84375 3.09375,2.5 3.203125,2.5 c 0.0625,0 0.09375,-0.03125 0.09375,-0.109375 z m 0,0"
               id="id-aeba8c45-0e8d-4405-939b-09f44d6bb7b2" />
          </g>
        </g>
        <g
           style="fill:#ff0000;fill-opacity:1;stroke:#ff0000;stroke-width:0;stroke-opacity:1"
           id="id-2e5fd204-9aec-4673-a6df-09892b69a3e3">
          <g
             transform="translate(235.253,134.765)"
             style="fill:#ff0000;fill-opacity:1;stroke:#ff0000;stroke-width:0;stroke-opacity:1"
             id="g9515">
            <path
               style="fill:#ff0000;fill-opacity:1;stroke:#ff0000;stroke-width:0;stroke-opacity:1"
               d="m 4.53125,-4.984375 c 0,-0.65625 -0.171875,-2.046875 -1.1875,-2.046875 -1.390625,0 -2.921875,2.8125 -2.921875,5.09375 0,0.9375 0.28125,2.046875 1.1875,2.046875 1.40625,0 2.921875,-2.859375 2.921875,-5.09375 z M 1.46875,-3.625 C 1.640625,-4.25 1.84375,-5.046875 2.25,-5.765625 2.515625,-6.25 2.875,-6.8125 3.328125,-6.8125 c 0.484375,0 0.546875,0.640625 0.546875,1.203125 0,0.5 -0.078125,1 -0.3125,1.984375 z m 2,0.328125 C 3.359375,-2.84375 3.15625,-2 2.765625,-1.28125 c -0.34375,0.6875 -0.71875,1.171875 -1.15625,1.171875 -0.328125,0 -0.53125,-0.296875 -0.53125,-1.21875 0,-0.421875 0.0625,-1 0.3125,-1.96875 z m 0,0"
               id="id-ace60600-664a-4d58-b34c-ed29ace38945" />
          </g>
        </g>
        <g
           style="fill:#ff0000;fill-opacity:1;stroke:#ff0000;stroke-width:0;stroke-opacity:1"
           id="id-4e2c3ddc-112c-46a9-ae22-a5263b1ef40a">
          <g
             transform="translate(240.207,134.765)"
             style="fill:#ff0000;fill-opacity:1;stroke:#ff0000;stroke-width:0;stroke-opacity:1"
             id="g9519">
            <path
               style="fill:#ff0000;fill-opacity:1;stroke:#ff0000;stroke-width:0;stroke-opacity:1"
               d="m 2.875,-2.5 c 0,-0.765625 -0.109375,-1.96875 -0.65625,-3.109375 -0.59375,-1.21875 -1.453125,-1.875 -1.546875,-1.875 -0.0625,0 -0.109375,0.046875 -0.109375,0.109375 0,0.03125 0,0.046875 0.1875,0.234375 0.984375,0.984375 1.546875,2.5625 1.546875,4.640625 0,1.71875 -0.359375,3.46875 -1.59375,4.71875 C 0.5625,2.34375 0.5625,2.359375 0.5625,2.390625 0.5625,2.453125 0.609375,2.5 0.671875,2.5 0.765625,2.5 1.671875,1.8125 2.25,0.546875 2.765625,-0.546875 2.875,-1.65625 2.875,-2.5 Z m 0,0"
               id="id-125c5bbc-adce-45f2-93e3-14d9dad2af28" />
          </g>
        </g>
        <g
           style="fill:#ff0000;fill-opacity:1;stroke:#ff0000;stroke-width:0;stroke-opacity:1"
           id="id-ecd17594-e8e4-44c2-a37e-98af47d18157">
          <g
             transform="translate(244.081,134.765)"
             style="fill:#ff0000;fill-opacity:1;stroke:#ff0000;stroke-width:0;stroke-opacity:1"
             id="g9523">
            <path
               style="fill:#ff0000;fill-opacity:1;stroke:#ff0000;stroke-width:0;stroke-opacity:1"
               d="m 2.03125,-0.015625 c 0,-0.65625 -0.25,-1.046875 -0.640625,-1.046875 -0.328125,0 -0.53125,0.25 -0.53125,0.53125 C 0.859375,-0.265625 1.0625,0 1.390625,0 1.5,0 1.640625,-0.046875 1.734375,-0.125 1.765625,-0.15625 1.78125,-0.15625 1.78125,-0.15625 c 0.015625,0 0.015625,0 0.015625,0.140625 0,0.75 -0.34375,1.34375 -0.671875,1.671875 -0.109375,0.109375 -0.109375,0.125 -0.109375,0.15625 0,0.078125 0.046875,0.109375 0.09375,0.109375 0.109375,0 0.921875,-0.765625 0.921875,-1.9375 z m 0,0"
               id="id-0a36907d-ecba-487f-b43f-6caaac2d309e" />
          </g>
        </g>
        <g
           style="fill:#ff0000;fill-opacity:1;stroke:#ff0000;stroke-width:0;stroke-opacity:1"
           id="id-959eff13-dbc7-4618-90ce-75ed5e1a6c9e">
          <g
             transform="translate(248.509,134.765)"
             style="fill:#ff0000;fill-opacity:1;stroke:#ff0000;stroke-width:0;stroke-opacity:1"
             id="g9527">
            <path
               style="fill:#ff0000;fill-opacity:1;stroke:#ff0000;stroke-width:0;stroke-opacity:1"
               d="m 2.078125,-1.9375 c 0.21875,0.046875 1.03125,0.203125 1.03125,0.921875 0,0.5 -0.34375,0.90625 -1.125,0.90625 -0.84375,0 -1.203125,-0.5625 -1.390625,-1.421875 C 0.5625,-1.65625 0.5625,-1.6875 0.453125,-1.6875 c -0.125,0 -0.125,0.0625 -0.125,0.234375 V -0.125 c 0,0.171875 0,0.234375 0.109375,0.234375 0.046875,0 0.0625,-0.015625 0.25,-0.203125 0.015625,-0.015625 0.015625,-0.03125 0.203125,-0.21875 0.4375,0.40625 0.890625,0.421875 1.09375,0.421875 1.140625,0 1.609375,-0.671875 1.609375,-1.390625 0,-0.515625 -0.296875,-0.828125 -0.421875,-0.9375 C 2.84375,-2.546875 2.453125,-2.625 2.03125,-2.703125 1.46875,-2.8125 0.8125,-2.9375 0.8125,-3.515625 c 0,-0.359375 0.25,-0.765625 1.109375,-0.765625 1.09375,0 1.15625,0.90625 1.171875,1.203125 0,0.09375 0.09375,0.09375 0.109375,0.09375 0.140625,0 0.140625,-0.046875 0.140625,-0.234375 v -1.015625 c 0,-0.15625 0,-0.234375 -0.109375,-0.234375 -0.046875,0 -0.078125,0 -0.203125,0.125 -0.03125,0.03125 -0.125,0.125 -0.171875,0.15625 -0.375,-0.28125 -0.78125,-0.28125 -0.9375,-0.28125 -1.21875,0 -1.59375,0.671875 -1.59375,1.234375 0,0.34375 0.15625,0.625 0.421875,0.84375 0.328125,0.25 0.609375,0.3125 1.328125,0.453125 z m 0,0"
               id="id-7d843e2a-a03d-4898-9387-9bdf9935a072" />
          </g>
          <g
             transform="translate(252.438,134.765)"
             style="fill:#ff0000;fill-opacity:1;stroke:#ff0000;stroke-width:0;stroke-opacity:1"
             id="g9530">
            <path
               style="fill:#ff0000;fill-opacity:1;stroke:#ff0000;stroke-width:0;stroke-opacity:1"
               d="M 1.765625,-4.40625 0.375,-4.296875 v 0.3125 c 0.640625,0 0.734375,0.0625 0.734375,0.546875 V -0.75 c 0,0.4375 -0.109375,0.4375 -0.78125,0.4375 V 0 C 0.640625,-0.015625 1.1875,-0.03125 1.421875,-0.03125 1.78125,-0.03125 2.125,-0.015625 2.46875,0 v -0.3125 c -0.671875,0 -0.703125,-0.046875 -0.703125,-0.4375 z m 0.03125,-1.734375 c 0,-0.3125 -0.234375,-0.53125 -0.515625,-0.53125 -0.3125,0 -0.53125,0.265625 -0.53125,0.53125 0,0.265625 0.21875,0.53125 0.53125,0.53125 0.28125,0 0.515625,-0.21875 0.515625,-0.53125 z m 0,0"
               id="id-b1c17ade-3bb4-4ee3-a105-30044c217ee7" />
          </g>
          <g
             transform="translate(255.206,134.765)"
             style="fill:#ff0000;fill-opacity:1;stroke:#ff0000;stroke-width:0;stroke-opacity:1"
             id="g9533">
            <path
               style="fill:#ff0000;fill-opacity:1;stroke:#ff0000;stroke-width:0;stroke-opacity:1"
               d="M 1.09375,-3.421875 V -0.75 c 0,0.4375 -0.109375,0.4375 -0.78125,0.4375 V 0 c 0.359375,-0.015625 0.859375,-0.03125 1.140625,-0.03125 0.25,0 0.765625,0.015625 1.109375,0.03125 v -0.3125 c -0.671875,0 -0.78125,0 -0.78125,-0.4375 V -2.59375 C 1.78125,-3.625 2.5,-4.1875 3.125,-4.1875 c 0.640625,0 0.75,0.53125 0.75,1.109375 V -0.75 c 0,0.4375 -0.109375,0.4375 -0.78125,0.4375 V 0 c 0.34375,-0.015625 0.859375,-0.03125 1.125,-0.03125 0.25,0 0.78125,0.015625 1.109375,0.03125 v -0.3125 c -0.515625,0 -0.765625,0 -0.765625,-0.296875 v -1.90625 c 0,-0.859375 0,-1.15625 -0.3125,-1.515625 -0.140625,-0.171875 -0.46875,-0.375 -1.046875,-0.375 C 2.46875,-4.40625 2,-3.984375 1.71875,-3.359375 V -4.40625 L 0.3125,-4.296875 v 0.3125 c 0.703125,0 0.78125,0.0625 0.78125,0.5625 z m 0,0"
               id="id-3f5bcc8e-4329-421c-a98e-6781cf570a55" />
          </g>
          <g
             transform="translate(260.741,134.765)"
             style="fill:#ff0000;fill-opacity:1;stroke:#ff0000;stroke-width:0;stroke-opacity:1"
             id="g9536">
            <path
               style="fill:#ff0000;fill-opacity:1;stroke:#ff0000;stroke-width:0;stroke-opacity:1"
               d="m 3.296875,2.390625 c 0,-0.03125 0,-0.046875 -0.171875,-0.21875 C 1.890625,0.921875 1.5625,-0.96875 1.5625,-2.5 c 0,-1.734375 0.375,-3.46875 1.609375,-4.703125 0.125,-0.125 0.125,-0.140625 0.125,-0.171875 0,-0.078125 -0.03125,-0.109375 -0.09375,-0.109375 -0.109375,0 -1,0.6875 -1.59375,1.953125 -0.5,1.09375 -0.625,2.203125 -0.625,3.03125 0,0.78125 0.109375,1.984375 0.65625,3.125 C 2.25,1.84375 3.09375,2.5 3.203125,2.5 c 0.0625,0 0.09375,-0.03125 0.09375,-0.109375 z m 0,0"
               id="id-326792ef-38a1-4c9f-853f-6cd1637504d3" />
          </g>
        </g>
        <g
           style="fill:#ff0000;fill-opacity:1;stroke:#ff0000;stroke-width:0;stroke-opacity:1"
           id="id-8c34946a-5923-4888-bb67-e7cf5573b699">
          <g
             transform="translate(264.616,134.765)"
             style="fill:#ff0000;fill-opacity:1;stroke:#ff0000;stroke-width:0;stroke-opacity:1"
             id="g9540">
            <path
               style="fill:#ff0000;fill-opacity:1;stroke:#ff0000;stroke-width:0;stroke-opacity:1"
               d="m 4.53125,-4.984375 c 0,-0.65625 -0.171875,-2.046875 -1.1875,-2.046875 -1.390625,0 -2.921875,2.8125 -2.921875,5.09375 0,0.9375 0.28125,2.046875 1.1875,2.046875 1.40625,0 2.921875,-2.859375 2.921875,-5.09375 z M 1.46875,-3.625 C 1.640625,-4.25 1.84375,-5.046875 2.25,-5.765625 2.515625,-6.25 2.875,-6.8125 3.328125,-6.8125 c 0.484375,0 0.546875,0.640625 0.546875,1.203125 0,0.5 -0.078125,1 -0.3125,1.984375 z m 2,0.328125 C 3.359375,-2.84375 3.15625,-2 2.765625,-1.28125 c -0.34375,0.6875 -0.71875,1.171875 -1.15625,1.171875 -0.328125,0 -0.53125,-0.296875 -0.53125,-1.21875 0,-0.421875 0.0625,-1 0.3125,-1.96875 z m 0,0"
               id="id-e896d788-3399-451b-b30e-3ce025d9a8a2" />
          </g>
        </g>
        <g
           style="fill:#ff0000;fill-opacity:1;stroke:#ff0000;stroke-width:0;stroke-opacity:1"
           id="id-87b21bc2-c043-4de9-8058-b6c1ac481b71">
          <g
             transform="translate(269.569,134.765)"
             style="fill:#ff0000;fill-opacity:1;stroke:#ff0000;stroke-width:0;stroke-opacity:1"
             id="g9544">
            <path
               style="fill:#ff0000;fill-opacity:1;stroke:#ff0000;stroke-width:0;stroke-opacity:1"
               d="m 2.875,-2.5 c 0,-0.765625 -0.109375,-1.96875 -0.65625,-3.109375 -0.59375,-1.21875 -1.453125,-1.875 -1.546875,-1.875 -0.0625,0 -0.109375,0.046875 -0.109375,0.109375 0,0.03125 0,0.046875 0.1875,0.234375 0.984375,0.984375 1.546875,2.5625 1.546875,4.640625 0,1.71875 -0.359375,3.46875 -1.59375,4.71875 C 0.5625,2.34375 0.5625,2.359375 0.5625,2.390625 0.5625,2.453125 0.609375,2.5 0.671875,2.5 0.765625,2.5 1.671875,1.8125 2.25,0.546875 2.765625,-0.546875 2.875,-1.65625 2.875,-2.5 Z m 0,0"
               id="id-e7c1724b-34a7-48b2-9cc8-f7e0159b168b" />
          </g>
          <g
             transform="translate(273.443,134.765)"
             style="fill:#ff0000;fill-opacity:1;stroke:#ff0000;stroke-width:0;stroke-opacity:1"
             id="g9547">
            <path
               style="fill:#ff0000;fill-opacity:1;stroke:#ff0000;stroke-width:0;stroke-opacity:1"
               d="m 2.875,-2.5 c 0,-0.765625 -0.109375,-1.96875 -0.65625,-3.109375 -0.59375,-1.21875 -1.453125,-1.875 -1.546875,-1.875 -0.0625,0 -0.109375,0.046875 -0.109375,0.109375 0,0.03125 0,0.046875 0.1875,0.234375 0.984375,0.984375 1.546875,2.5625 1.546875,4.640625 0,1.71875 -0.359375,3.46875 -1.59375,4.71875 C 0.5625,2.34375 0.5625,2.359375 0.5625,2.390625 0.5625,2.453125 0.609375,2.5 0.671875,2.5 0.765625,2.5 1.671875,1.8125 2.25,0.546875 2.765625,-0.546875 2.875,-1.65625 2.875,-2.5 Z m 0,0"
               id="id-3bc9944c-15db-421a-934c-1e0396bf7867" />
          </g>
        </g>
      </g>
    </g>
  </g>
</svg>
