<?xml version="1.0" encoding="UTF-8" standalone="no"?>
<!-- Created with Inkscape (http://www.inkscape.org/) -->

<svg
   sodipodi:docname="3.7.compacto.svg"
   inkscape:version="1.1.1 (3bf5ae0d25, 2021-09-20)"
   id="svg2770"
   version="1.1"
   viewBox="0 0 210 297"
   height="297mm"
   width="210mm"
   inkscape:export-filename="C:\Users\Luis Hervella\Downloads\01_ejemplo1.png"
   inkscape:export-xdpi="96"
   inkscape:export-ydpi="96"
   xmlns:inkscape="http://www.inkscape.org/namespaces/inkscape"
   xmlns:sodipodi="http://sodipodi.sourceforge.net/DTD/sodipodi-0.dtd"
   xmlns:xlink="http://www.w3.org/1999/xlink"
   xmlns="http://www.w3.org/2000/svg"
   xmlns:svg="http://www.w3.org/2000/svg"
   xmlns:ns1="http://www.iki.fi/pav/software/textext/">
  <sodipodi:namedview
     id="namedview2772"
     pagecolor="#ffffff"
     bordercolor="#666666"
     borderopacity="1.0"
     inkscape:pageshadow="2"
     inkscape:pageopacity="0.0"
     inkscape:pagecheckerboard="0"
     inkscape:document-units="mm"
     showgrid="false"
     inkscape:zoom="1"
     inkscape:cx="320.5"
     inkscape:cy="442.5"
     inkscape:window-width="3440"
     inkscape:window-height="1369"
     inkscape:window-x="2552"
     inkscape:window-y="-8"
     inkscape:window-maximized="1"
     inkscape:current-layer="layer1" />
  <defs
     id="defs2767">
    <inkscape:path-effect
       effect="spiro"
       id="path-effect1930"
       is_visible="true"
       lpeversion="1" />
    <inkscape:path-effect
       effect="spiro"
       id="path-effect1926"
       is_visible="true"
       lpeversion="1" />
    <linearGradient
       inkscape:collect="always"
       id="linearGradient17587">
      <stop
         style="stop-color:#00ff00;stop-opacity:1;"
         offset="0"
         id="stop17583" />
      <stop
         style="stop-color:#00ff00;stop-opacity:0;"
         offset="1"
         id="stop17585" />
    </linearGradient>
    <inkscape:path-effect
       effect="spiro"
       id="path-effect3673"
       is_visible="true"
       lpeversion="1" />
    <inkscape:path-effect
       effect="spiro"
       id="path-effect2747"
       is_visible="true"
       lpeversion="1" />
    <inkscape:path-effect
       effect="spiro"
       id="path-effect2200"
       is_visible="true"
       lpeversion="1" />
    <inkscape:path-effect
       effect="spiro"
       id="path-effect2196"
       is_visible="true"
       lpeversion="1" />
    <inkscape:path-effect
       effect="spiro"
       id="path-effect1919"
       is_visible="true"
       lpeversion="1" />
    <inkscape:path-effect
       effect="bspline"
       id="path-effect1830"
       is_visible="true"
       lpeversion="1"
       weight="33.333333"
       steps="2"
       helper_size="0"
       apply_no_weight="true"
       apply_with_weight="true"
       only_selected="false" />
    <inkscape:path-effect
       effect="bspline"
       id="path-effect1826"
       is_visible="true"
       lpeversion="1"
       weight="33.333333"
       steps="2"
       helper_size="0"
       apply_no_weight="true"
       apply_with_weight="true"
       only_selected="false" />
    <linearGradient
       id="linearGradient11027"
       inkscape:swatch="solid">
      <stop
         style="stop-color:#ff0000;stop-opacity:1;"
         offset="0"
         id="stop11025" />
    </linearGradient>
    <marker
       style="overflow:visible"
       id="Arrow1Sstart"
       refX="0.0"
       refY="0.0"
       orient="auto"
       inkscape:stockid="Arrow1Sstart"
       inkscape:isstock="true">
      <path
         transform="scale(0.2) translate(6,0)"
         style="fill-rule:evenodd;fill:context-stroke;stroke:context-stroke;stroke-width:1.0pt"
         d="M 0.0,0.0 L 5.0,-5.0 L -12.5,0.0 L 5.0,5.0 L 0.0,0.0 z "
         id="path3861" />
    </marker>
    <marker
       style="overflow:visible;"
       id="marker4110"
       refX="0.0"
       refY="0.0"
       orient="auto"
       inkscape:stockid="Arrow1Send"
       inkscape:isstock="true">
      <path
         transform="scale(0.2) rotate(180) translate(6,0)"
         style="fill-rule:evenodd;fill:context-stroke;stroke:context-stroke;stroke-width:1.0pt;"
         d="M 0.0,0.0 L 5.0,-5.0 L -12.5,0.0 L 5.0,5.0 L 0.0,0.0 z "
         id="path3864" />
    </marker>
    <inkscape:path-effect
       effect="spiro"
       id="path-effect2274"
       is_visible="true"
       lpeversion="1" />
    <marker
       style="overflow:visible;"
       id="marker15437"
       refX="0.0"
       refY="0.0"
       orient="auto"
       inkscape:stockid="Arrow1Send"
       inkscape:isstock="true">
      <path
         transform="scale(0.2) rotate(180) translate(6,0)"
         style="fill-rule:evenodd;fill:context-stroke;stroke:context-stroke;stroke-width:1.0pt;"
         d="M 0.0,0.0 L 5.0,-5.0 L -12.5,0.0 L 5.0,5.0 L 0.0,0.0 z "
         id="path15435" />
    </marker>
    <marker
       style="overflow:visible;"
       id="Arrow1Send"
       refX="0.0"
       refY="0.0"
       orient="auto"
       inkscape:stockid="Arrow1Send"
       inkscape:isstock="true">
      <path
         transform="scale(0.2) rotate(180) translate(6,0)"
         style="fill-rule:evenodd;fill:context-stroke;stroke:context-stroke;stroke-width:1.0pt;"
         d="M 0.0,0.0 L 5.0,-5.0 L -12.5,0.0 L 5.0,5.0 L 0.0,0.0 z "
         id="path13793" />
    </marker>
    <inkscape:path-effect
       effect="spiro"
       id="path-effect15059"
       is_visible="true"
       lpeversion="1" />
    <inkscape:path-effect
       effect="spiro"
       id="path-effect15030"
       is_visible="true"
       lpeversion="1" />
    <inkscape:path-effect
       effect="spiro"
       id="path-effect15001"
       is_visible="true"
       lpeversion="1" />
    <inkscape:path-effect
       effect="spiro"
       id="path-effect14982"
       is_visible="true"
       lpeversion="1" />
    <inkscape:path-effect
       effect="spiro"
       id="path-effect14874"
       is_visible="true"
       lpeversion="1" />
    <inkscape:path-effect
       effect="spiro"
       id="path-effect14676"
       is_visible="true"
       lpeversion="1" />
    <inkscape:path-effect
       effect="spiro"
       id="path-effect14647"
       is_visible="true"
       lpeversion="1" />
    <inkscape:path-effect
       effect="spiro"
       id="path-effect14628"
       is_visible="true"
       lpeversion="1" />
    <inkscape:path-effect
       effect="spiro"
       id="path-effect14520"
       is_visible="true"
       lpeversion="1" />
    <inkscape:path-effect
       effect="spiro"
       id="path-effect14450"
       is_visible="true"
       lpeversion="1" />
    <marker
       style="overflow:visible"
       id="marker3397"
       refX="0.0"
       refY="0.0"
       orient="auto"
       inkscape:stockid="Arrow1Mstart"
       inkscape:isstock="true">
      <path
         transform="scale(0.4) translate(10,0)"
         style="fill-rule:evenodd;fill:context-stroke;stroke:context-stroke;stroke-width:1.0pt"
         d="M 0.0,0.0 L 5.0,-5.0 L -12.5,0.0 L 5.0,5.0 L 0.0,0.0 z "
         id="path3395" />
    </marker>
    <marker
       style="overflow:visible;"
       id="Arrow1Mend"
       refX="0.0"
       refY="0.0"
       orient="auto"
       inkscape:stockid="Arrow1Mend"
       inkscape:isstock="true">
      <path
         transform="scale(0.4) rotate(180) translate(10,0)"
         style="fill-rule:evenodd;fill:context-stroke;stroke:context-stroke;stroke-width:1.0pt;"
         d="M 0.0,0.0 L 5.0,-5.0 L -12.5,0.0 L 5.0,5.0 L 0.0,0.0 z "
         id="path3128" />
    </marker>
    <marker
       style="overflow:visible"
       id="Arrow1Mstart"
       refX="0.0"
       refY="0.0"
       orient="auto"
       inkscape:stockid="Arrow1Mstart"
       inkscape:isstock="true">
      <path
         transform="scale(0.4) translate(10,0)"
         style="fill-rule:evenodd;fill:context-stroke;stroke:context-stroke;stroke-width:1.0pt"
         d="M 0.0,0.0 L 5.0,-5.0 L -12.5,0.0 L 5.0,5.0 L 0.0,0.0 z "
         id="path3125" />
    </marker>
    <marker
       style="overflow:visible"
       id="Arrow1Mend-8"
       refX="0"
       refY="0"
       orient="auto"
       inkscape:stockid="Arrow1Mend"
       inkscape:isstock="true">
      <path
         transform="matrix(-0.4,0,0,-0.4,-4,0)"
         style="fill:context-stroke;fill-rule:evenodd;stroke:context-stroke;stroke-width:1pt"
         d="M 0,0 5,-5 -12.5,0 5,5 Z"
         id="path3128-1" />
    </marker>
    <g
       id="id-b9d6fca2-256c-44c5-81e7-0d1b739764cb-7">
      <symbol
         overflow="visible"
         id="id-9a993e8d-f8a6-48cf-9ac7-01c770303495-5">
        <path
           style="stroke:none;stroke-width:0"
           d=""
           id="id-9b539236-f9f3-41d3-bf21-3145fb319625-3" />
      </symbol>
      <symbol
         overflow="visible"
         id="id-2b0ab4a2-d565-49cf-97db-7e3471e678cc-3">
        <path
           style="stroke:none;stroke-width:0"
           d="m 5.359375,-5.9375 c -0.140625,0.140625 -0.46875,0.421875 -0.46875,0.59375 0,0.09375 0.09375,0.203125 0.1875,0.203125 0.09375,0 0.140625,-0.078125 0.203125,-0.140625 C 5.390625,-5.421875 5.625,-5.703125 6.0625,-5.921875 6.125,-5.96875 6.234375,-6.015625 6.234375,-6.125 6.234375,-6.234375 6.15625,-6.28125 6.09375,-6.328125 5.875,-6.484375 5.765625,-6.65625 5.6875,-6.890625 5.65625,-6.984375 5.625,-7.125 5.484375,-7.125 c -0.140625,0 -0.203125,0.140625 -0.203125,0.21875 0,0.046875 0.078125,0.359375 0.234375,0.578125 H 2.15625 c -0.15625,0 -0.34375,0 -0.34375,0.203125 0,0.1875 0.1875,0.1875 0.34375,0.1875 z m 0,0"
           id="id-eb77f961-1280-4102-8a17-b349b37e6cda-6" />
      </symbol>
      <symbol
         overflow="visible"
         id="id-ba49f590-f26a-4246-b452-d0b13b67b385-9">
        <path
           style="stroke:none;stroke-width:0"
           d="M 3.015625,-3.15625 H 4.71875 c 1.40625,0 2.796875,-1.03125 2.796875,-2.140625 0,-0.78125 -0.65625,-1.515625 -1.96875,-1.515625 h -3.21875 c -0.1875,0 -0.296875,0 -0.296875,0.1875 0,0.125 0.078125,0.125 0.28125,0.125 0.125,0 0.3125,0.015625 0.421875,0.015625 0.171875,0.03125 0.21875,0.046875 0.21875,0.171875 0,0.03125 0,0.0625 -0.03125,0.1875 l -1.34375,5.34375 c -0.09375,0.390625 -0.109375,0.46875 -0.90625,0.46875 -0.15625,0 -0.265625,0 -0.265625,0.1875 C 0.40625,0 0.515625,0 0.546875,0 0.828125,0 1.53125,-0.03125 1.8125,-0.03125 c 0.21875,0 0.4375,0.015625 0.640625,0.015625 0.21875,0 0.4375,0.015625 0.640625,0.015625 0.078125,0 0.203125,0 0.203125,-0.203125 0,-0.109375 -0.09375,-0.109375 -0.28125,-0.109375 -0.359375,0 -0.640625,0 -0.640625,-0.171875 0,-0.0625 0.015625,-0.109375 0.03125,-0.171875 z M 3.734375,-6.125 C 3.828125,-6.46875 3.84375,-6.5 4.28125,-6.5 h 0.953125 c 0.828125,0 1.359375,0.265625 1.359375,0.953125 0,0.390625 -0.203125,1.25 -0.59375,1.609375 -0.5,0.453125 -1.09375,0.53125 -1.53125,0.53125 H 3.0625 Z m 0,0"
           id="id-3735b8db-fc89-4cbf-a701-9a37f8b62b9b-5" />
      </symbol>
      <symbol
         overflow="visible"
         id="id-21f735da-6683-4d8c-ab6b-4f1870be48bb-3">
        <path
           style="stroke:none;stroke-width:0"
           d="M 4.359375,-0.0625 C 5.90625,-0.640625 7.375,-2.421875 7.375,-4.34375 c 0,-1.609375 -1.0625,-2.6875 -2.546875,-2.6875 -2.140625,0 -4.34375,2.265625 -4.34375,4.59375 0,1.65625 1.125,2.65625 2.5625,2.65625 0.25,0 0.578125,-0.046875 0.96875,-0.15625 -0.03125,0.625 -0.03125,0.640625 -0.03125,0.78125 0,0.3125 0,1.09375 0.828125,1.09375 1.171875,0 1.65625,-1.828125 1.65625,-1.9375 0,-0.0625 -0.0625,-0.09375 -0.109375,-0.09375 -0.078125,0 -0.09375,0.046875 -0.125,0.109375 C 6,0.71875 5.421875,0.96875 5.078125,0.96875 c -0.46875,0 -0.609375,-0.265625 -0.71875,-1.03125 z m -1.875,-0.078125 c -0.78125,-0.3125 -1.125,-1.078125 -1.125,-1.984375 0,-0.6875 0.265625,-2.109375 1.015625,-3.171875 C 3.109375,-6.3125 4.046875,-6.78125 4.78125,-6.78125 5.765625,-6.78125 6.5,-6 6.5,-4.671875 c 0,1 -0.515625,3.34375 -2.1875,4.265625 -0.046875,-0.34375 -0.140625,-1.0625 -0.875,-1.0625 -0.53125,0 -1.015625,0.484375 -1.015625,1.015625 0,0.1875 0.0625,0.296875 0.0625,0.3125 z M 3.09375,-0.03125 c -0.140625,0 -0.453125,0 -0.453125,-0.421875 0,-0.40625 0.375,-0.796875 0.796875,-0.796875 0.421875,0 0.609375,0.234375 0.609375,0.84375 0,0.140625 -0.015625,0.15625 -0.109375,0.203125 C 3.671875,-0.09375 3.375,-0.03125 3.09375,-0.03125 Z m 0,0"
           id="id-9daf3346-a05c-48d8-866e-464d12a68638-5" />
      </symbol>
    </g>
    <marker
       style="overflow:visible"
       id="Arrow1Sstart-1"
       refX="0"
       refY="0"
       orient="auto"
       inkscape:stockid="Arrow1Sstart"
       inkscape:isstock="true">
      <path
         transform="matrix(0.2,0,0,0.2,1.2,0)"
         style="fill:context-stroke;fill-rule:evenodd;stroke:context-stroke;stroke-width:1pt"
         d="M 0,0 5,-5 -12.5,0 5,5 Z"
         id="path3861-1" />
    </marker>
    <marker
       style="overflow:visible"
       id="marker4110-6"
       refX="0"
       refY="0"
       orient="auto"
       inkscape:stockid="Arrow1Send"
       inkscape:isstock="true">
      <path
         transform="matrix(-0.2,0,0,-0.2,-1.2,0)"
         style="fill:context-stroke;fill-rule:evenodd;stroke:context-stroke;stroke-width:1pt"
         d="M 0,0 5,-5 -12.5,0 5,5 Z"
         id="path3864-1" />
    </marker>
    <marker
       style="overflow:visible"
       id="marker2500"
       refX="0"
       refY="0"
       orient="auto"
       inkscape:stockid="Arrow1Send"
       inkscape:isstock="true">
      <path
         transform="matrix(-0.2,0,0,-0.2,-1.2,0)"
         style="fill:context-stroke;fill-rule:evenodd;stroke:context-stroke;stroke-width:1pt"
         d="M 0,0 5,-5 -12.5,0 5,5 Z"
         id="path2498" />
    </marker>
    <marker
       style="overflow:visible"
       id="marker2504"
       refX="0"
       refY="0"
       orient="auto"
       inkscape:stockid="Arrow1Send"
       inkscape:isstock="true">
      <path
         transform="matrix(-0.2,0,0,-0.2,-1.2,0)"
         style="fill:context-stroke;fill-rule:evenodd;stroke:context-stroke;stroke-width:1pt"
         d="M 0,0 5,-5 -12.5,0 5,5 Z"
         id="path2502" />
    </marker>
    <g
       id="id-50e147b0-b653-48b6-b5e2-d154f6fea026-4"
       style="opacity:1;fill:#ff0000;fill-opacity:1;stroke:#ff0000;stroke-width:0;stroke-opacity:1">
      <symbol
         overflow="visible"
         id="id-7e09d12a-1ccc-4211-8d0f-092dc344ef09-8"
         style="opacity:1;fill:#ff0000;fill-opacity:1;stroke:#ff0000;stroke-width:0;stroke-opacity:1">
        <path
           style="opacity:1;fill:#ff0000;fill-opacity:1;stroke:#ff0000;stroke-width:0;stroke-opacity:1"
           d=""
           id="id-a49a4ded-0be3-49de-8929-dbecdad31230-6" />
      </symbol>
      <symbol
         overflow="visible"
         id="id-40309bf4-91b8-43dc-acc5-1af2c5e43404-1"
         style="opacity:1;fill:#ff0000;fill-opacity:1;stroke:#ff0000;stroke-width:0;stroke-opacity:1">
        <path
           style="opacity:1;fill:#ff0000;fill-opacity:1;stroke:#ff0000;stroke-width:0;stroke-opacity:1"
           d="M 4.359375,-0.71875 V 0.0625 L 6.125,0 v -0.46875 c -0.609375,0 -0.6875,0 -0.6875,-0.390625 v -3.625 L 3.625,-4.40625 v 0.46875 c 0.609375,0 0.6875,0 0.6875,0.390625 v 1.90625 c 0,0.8125 -0.515625,1.34375 -1.234375,1.34375 -0.78125,0 -0.8125,-0.25 -0.8125,-0.796875 v -3.390625 l -1.8125,0.078125 v 0.46875 c 0.609375,0 0.6875,0 0.6875,0.390625 v 2.328125 c 0,1.0625 0.796875,1.28125 1.796875,1.28125 0.25,0 0.96875,0 1.421875,-0.78125 z m 0,0"
           id="id-8e87dd90-ed38-451a-b5bb-bd8982b6f7b8-3" />
      </symbol>
    </g>
    <g
       id="id-85a63ff1-588e-409f-8960-4d87e5e53d48-4"
       style="fill:#0000ff;fill-opacity:1;stroke-width:0">
      <symbol
         overflow="visible"
         id="id-3025c363-096e-452d-8d0a-3b3e24c7c48a-0"
         style="fill:#0000ff;fill-opacity:1;stroke-width:0">
        <path
           style="fill:#0000ff;fill-opacity:1;stroke:#0000ff;stroke-width:0"
           d=""
           id="id-9569ed33-5fe5-4584-8454-8fa3dbb61cd1-3" />
      </symbol>
      <symbol
         overflow="visible"
         id="id-3794a8c6-3559-4f16-82df-d110836eff6f-1"
         style="fill:#0000ff;fill-opacity:1;stroke-width:0">
        <path
           style="fill:#0000ff;fill-opacity:1;stroke:#0000ff;stroke-width:0"
           d="m 5.046875,-3.75 c 0.0625,-0.140625 0.09375,-0.203125 0.734375,-0.203125 v -0.46875 C 5.53125,-4.40625 5.25,-4.390625 5,-4.390625 c -0.25,0 -0.703125,-0.03125 -0.90625,-0.03125 v 0.46875 c 0.1875,0 0.46875,0.03125 0.46875,0.109375 0,0 0,0.03125 -0.046875,0.109375 l -1.15625,2.5 -1.265625,-2.71875 H 2.625 v -0.46875 c -0.328125,0.015625 -1.21875,0.03125 -1.234375,0.03125 -0.28125,0 -0.71875,-0.03125 -1.125,-0.03125 v 0.46875 h 0.625 l 1.75,3.75 c 0.125,0.25 0.25,0.25 0.375,0.25 0.171875,0 0.28125,-0.03125 0.375,-0.25 z m 0,0"
           id="id-0be0bb2c-51ad-450c-8f51-15252518cc8b-2" />
      </symbol>
    </g>
    <g
       id="id-c0f55b88-4146-4b8e-94a4-cd9df548eb06-2">
      <symbol
         overflow="visible"
         id="id-35ed1a44-44c3-4fcb-b8b7-56954f798156-1">
        <path
           style="stroke:none;stroke-width:0"
           d=""
           id="id-f495936d-52e4-4e5b-8ba2-4367a1c83e8b-8" />
      </symbol>
      <symbol
         overflow="visible"
         id="id-d1771a80-9e51-4c95-ae02-1e4d280f077a-7">
        <path
           style="stroke:none;stroke-width:0"
           d="m 4.53125,-4.984375 c 0,-0.65625 -0.171875,-2.046875 -1.1875,-2.046875 -1.390625,0 -2.921875,2.8125 -2.921875,5.09375 0,0.9375 0.28125,2.046875 1.1875,2.046875 1.40625,0 2.921875,-2.859375 2.921875,-5.09375 z M 1.46875,-3.625 C 1.640625,-4.25 1.84375,-5.046875 2.25,-5.765625 2.515625,-6.25 2.875,-6.8125 3.328125,-6.8125 c 0.484375,0 0.546875,0.640625 0.546875,1.203125 0,0.5 -0.078125,1 -0.3125,1.984375 z m 2,0.328125 C 3.359375,-2.84375 3.15625,-2 2.765625,-1.28125 c -0.34375,0.6875 -0.71875,1.171875 -1.15625,1.171875 -0.328125,0 -0.53125,-0.296875 -0.53125,-1.21875 0,-0.421875 0.0625,-1 0.3125,-1.96875 z m 0,0"
           id="id-9dee450b-8f7a-4fc7-9ee3-7726f2a03be4-1" />
      </symbol>
    </g>
    <linearGradient
       inkscape:collect="always"
       xlink:href="#linearGradient17587"
       id="linearGradient17589-1"
       x1="-0.5"
       y1="2.940841"
       x2="12.127271"
       y2="2.940841"
       gradientUnits="userSpaceOnUse"
       gradientTransform="translate(43.429241,165.60672)" />
    <g
       id="id-ff60e783-e5f9-4ead-a349-95fdf4594a60-6"
       style="stroke:url(#linearGradient17589-1)">
      <symbol
         overflow="visible"
         id="id-a185ef5d-7977-4250-a603-eef3ab76a724-5"
         style="stroke:url(#linearGradient17589-1)">
        <path
           style="stroke:url(#linearGradient17589-1)"
           d=""
           id="id-4a932ad2-7475-45f4-826b-726de79de43a-6" />
      </symbol>
      <symbol
         overflow="visible"
         id="id-1613d61c-0002-4a43-93e9-b00d3ee5c01b-6"
         style="stroke:url(#linearGradient17589-1)">
        <path
           style="stroke:url(#linearGradient17589-1)"
           d="m 7.34375,-3.75 c 0.046875,-0.125 0.09375,-0.203125 0.6875,-0.203125 v -0.46875 C 7.796875,-4.40625 7.5,-4.390625 7.25,-4.390625 c -0.265625,0 -0.734375,-0.03125 -0.953125,-0.03125 v 0.46875 c 0.09375,0 0.578125,0 0.578125,0.109375 0,0.03125 -0.03125,0.09375 -0.03125,0.125 L 5.796875,-1.171875 4.65625,-3.953125 h 0.5625 v -0.46875 c -0.328125,0 -0.84375,0.03125 -1.140625,0.03125 -0.421875,0 -0.84375,-0.03125 -1,-0.03125 v 0.46875 h 0.59375 c 0.203125,0.5 0.203125,0.515625 0.203125,0.53125 0,0.03125 -0.03125,0.09375 -0.03125,0.125 L 3.046875,-1.390625 2,-3.953125 h 0.5625 v -0.46875 c -0.40625,0.015625 -0.8125,0.03125 -1.234375,0.03125 -0.296875,0 -0.734375,-0.03125 -1.078125,-0.03125 v 0.46875 h 0.59375 l 1.515625,3.71875 C 2.4375,-0.0625 2.46875,0.046875 2.71875,0.046875 c 0.25,0 0.296875,-0.109375 0.359375,-0.28125 L 4.140625,-2.8125 5.1875,-0.234375 c 0.078125,0.171875 0.109375,0.28125 0.359375,0.28125 0.25,0 0.296875,-0.109375 0.359375,-0.28125 z m 0,0"
           id="id-e941249f-14a5-4549-8b20-e04daf4ac6fa-2" />
      </symbol>
      <symbol
         overflow="visible"
         id="id-4c10d19e-5aed-44b7-992d-993ae0c22067-5"
         style="stroke:url(#linearGradient17589-1)">
        <path
           style="stroke:url(#linearGradient17589-1)"
           d=""
           id="id-74e51442-f921-41b1-a6d4-8548b7006787-6" />
      </symbol>
      <symbol
         overflow="visible"
         id="id-40fe34fc-e8dd-481f-bad1-c426633f12df-7"
         style="stroke:url(#linearGradient17589-1)">
        <path
           style="stroke:url(#linearGradient17589-1)"
           d="M 3.515625,-1.265625 H 3.28125 c -0.015625,0.15625 -0.09375,0.5625 -0.1875,0.625 C 3.046875,-0.59375 2.515625,-0.59375 2.40625,-0.59375 H 1.125 c 0.734375,-0.640625 0.984375,-0.84375 1.390625,-1.171875 0.515625,-0.40625 1,-0.84375 1,-1.5 0,-0.84375 -0.734375,-1.359375 -1.625,-1.359375 -0.859375,0 -1.453125,0.609375 -1.453125,1.25 0,0.34375 0.296875,0.390625 0.375,0.390625 0.15625,0 0.359375,-0.125 0.359375,-0.375 0,-0.125 -0.046875,-0.375 -0.40625,-0.375 C 0.984375,-4.21875 1.453125,-4.375 1.78125,-4.375 c 0.703125,0 1.0625,0.546875 1.0625,1.109375 0,0.609375 -0.4375,1.078125 -0.65625,1.328125 L 0.515625,-0.265625 C 0.4375,-0.203125 0.4375,-0.1875 0.4375,0 h 2.875 z m 0,0"
           id="id-edb54173-55bd-48d8-8508-4acdb292fe34-6" />
      </symbol>
    </g>
  </defs>
  <g
     inkscape:label="Capa 1"
     inkscape:groupmode="layer"
     id="layer1">
    <path
       style="fill:none;stroke:#000000;stroke-width:0.188344px;stroke-linecap:butt;stroke-linejoin:miter;stroke-opacity:1"
       d="m 103.98813,107.08158 v 0"
       id="path3870"
       sodipodi:nodetypes="cc" />
    <path
       style="fill:none;stroke:#000000;stroke-width:0.711851;stroke-linecap:butt;stroke-linejoin:miter;stroke-miterlimit:4;stroke-dasharray:none;stroke-opacity:1;marker-start:url(#Arrow1Sstart)"
       d="M 79.269796,38.903 V 200"
       id="path3616"
       sodipodi:nodetypes="cc" />
    <path
       style="fill:none;stroke:#000000;stroke-width:0.711851;stroke-linecap:butt;stroke-linejoin:miter;stroke-miterlimit:4;stroke-dasharray:none;stroke-opacity:1;marker-end:url(#marker4110)"
       d="M 5.653,124.0571 155,123.9609"
       id="path3746"
       sodipodi:nodetypes="cc" />
    <path
       style="fill:#d60d8c;fill-opacity:1;stroke:#000000;stroke-width:2;stroke-linecap:butt;stroke-linejoin:miter;stroke-miterlimit:4;stroke-dasharray:none;stroke-opacity:1"
       d="m 63.549167,87.872943 c -1.024138,4.505854 -2.949215,8.867703 -3.02981,13.487777 -0.05223,2.99405 0.713292,6.03252 2.383787,8.51779 1.670495,2.48526 4.275347,4.37726 7.21061,4.96999 1.775765,0.35859 3.617485,0.24651 5.403801,-0.0552 1.786315,-0.30166 3.535102,-0.78958 5.302911,-1.18553 1.767809,-0.39595 3.57237,-0.7013 5.38252,-0.62864 1.810151,0.0727 3.638814,0.54445 5.119434,1.58833 1.614405,1.1382 2.722149,2.89284 3.361857,4.76169 0.639708,1.86885 0.844138,3.85816 0.928247,5.83167 0.08411,1.97351 0.05252,3.9535 0.240054,5.91988 0.187533,1.96637 0.604598,3.93998 1.52946,5.68539 1.394844,2.63236 3.915752,4.6003 6.751132,5.51436 2.83538,0.91406 5.95525,0.8082 8.79425,-0.0946 2.839,-0.90276 5.40207,-2.57667 7.52899,-4.6626 2.12692,-2.08594 3.83011,-4.57666 5.20385,-7.22009 3.14048,-6.04309 4.57353,-13.16283 2.92788,-19.77142 -0.82283,-3.30429 -2.40977,-6.43317 -4.69805,-8.9549 -2.28829,-2.521737 -5.28538,-4.419827 -8.58168,-5.274116 -4.89959,-1.269807 -10.05842,-0.216856 -15.11899,-0.121894 -2.530282,0.04748 -5.097753,-0.154626 -7.486573,-0.990169 -2.388819,-0.835542 -4.599162,-2.352299 -5.925142,-4.507843 -1.343754,-2.184439 -1.691202,-4.860682 -1.495441,-7.417853 0.195761,-2.557172 0.896304,-5.044131 1.516097,-7.532766 0.619792,-2.488635 1.165194,-5.032773 1.040993,-7.594417 -0.124201,-2.561645 -0.987148,-5.17485 -2.829037,-6.959476 -1.277889,-1.23816 -2.974689,-2.016616 -4.736647,-2.264696 -1.761959,-0.248081 -3.582454,0.02309 -5.231185,0.692217 -3.297461,1.338252 -5.807797,4.20034 -7.347352,7.408757 -1.539554,3.208417 -2.202979,6.762555 -2.653036,10.292657 -0.450056,3.530101 -0.704194,7.095454 -1.49293,10.565622 z"
       id="path1924"
       inkscape:path-effect="#path-effect1926"
       inkscape:original-d="m 63.549167,87.872943 c -7.153895,8.897987 -2.019694,8.992049 -3.02981,13.487777 -1.010114,4.49573 6.396444,8.99205 9.594397,13.48778 3.197954,4.49572 14.139289,-0.18714 21.208666,-0.281 7.069376,-0.0939 4.039925,14.79929 6.059618,22.19863 2.019694,7.39935 18.852332,-4.30839 28.278222,-6.46289 9.42589,-2.1545 -6.90105,-22.66676 -10.35185,-34.000436 C 111.85762,84.969126 96.28812,92.556399 86.777705,90.682898 77.267292,88.809396 85.599624,71.013423 85.010317,61.178386 84.421009,51.343351 70.703062,78.974956 63.549167,87.872943 Z" />
    <circle
       style="fill:#d60d8c;fill-opacity:0;stroke:#000000;stroke-width:1;stroke-miterlimit:4;stroke-dasharray:2, 1;stroke-dashoffset:0"
       id="path4132"
       cx="79.420006"
       cy="123.89441"
       inkscape:transform-center-x="-13.04042"
       inkscape:transform-center-y="11.54701"
       r="68.77269" />
    <g
       transform="matrix(1.05833 0 0 1.05833 81.0535 113.242)"
       ns1:version="1.6.0"
       ns1:texconverter="pdflatex"
       ns1:pdfconverter="inkscape"
       ns1:text="$C$\n"
       ns1:preamble="C:\Users\Luis Hervella\AppData\Roaming\inkscape\extensions\textext\default_packages.tex"
       ns1:scale="3.0"
       ns1:alignment="middle center"
       ns1:stroke-to-path="0"
       ns1:inkscapeversion="1.1.1"
       ns1:jacobian_sqrt="1.05833"
       id="g4883">
      <defs
         id="id-967ac50d-b3eb-44f1-9e88-36fdbd281e12">
        <g
           id="id-5fd4c1dc-3f4b-4262-9b6b-d34897aed0a4">
          <symbol
             overflow="visible"
             id="id-bff56eb4-b366-4ea3-960d-ed6dadc7845e">
            <path
               style="stroke:none;stroke-width:0"
               d=""
               id="id-6ec616d6-22e8-4aaf-aba0-18e9a09e45b3" />
          </symbol>
          <symbol
             overflow="visible"
             id="id-b6ff97bd-574c-4b78-b459-2dff5a95cccc">
            <path
               style="stroke:none;stroke-width:0"
               d="m 7.578125,-6.921875 c 0,-0.03125 -0.015625,-0.109375 -0.109375,-0.109375 -0.03125,0 -0.046875,0.015625 -0.15625,0.125 L 6.625,-6.140625 C 6.53125,-6.28125 6.078125,-7.03125 4.96875,-7.03125 2.734375,-7.03125 0.5,-4.828125 0.5,-2.515625 0.5,-0.875 1.671875,0.21875 3.203125,0.21875 c 0.859375,0 1.625,-0.390625 2.15625,-0.859375 0.921875,-0.8125 1.09375,-1.71875 1.09375,-1.75 C 6.453125,-2.5 6.34375,-2.5 6.328125,-2.5 c -0.0625,0 -0.109375,0.03125 -0.125,0.109375 -0.09375,0.28125 -0.328125,1 -1.015625,1.578125 -0.6875,0.546875 -1.3125,0.71875 -1.828125,0.71875 -0.890625,0 -1.953125,-0.515625 -1.953125,-2.0625 0,-0.578125 0.203125,-2.1875 1.203125,-3.359375 0.609375,-0.703125 1.546875,-1.203125 2.4375,-1.203125 1.015625,0 1.609375,0.765625 1.609375,1.921875 0,0.40625 -0.03125,0.40625 -0.03125,0.515625 0,0.09375 0.109375,0.09375 0.140625,0.09375 0.125,0 0.125,-0.015625 0.1875,-0.203125 z m 0,0"
               id="id-fdfc90da-6e4d-4d60-a27d-f84c50366523" />
          </symbol>
        </g>
      </defs>
      <g
         id="id-5ecda03f-09ac-4387-8d5e-09731dc8a001"
         transform="translate(-149.212, -127.734)">
        <g
           style="fill:#000000;fill-opacity:1"
           id="id-ca9d0e61-a067-4ba6-b350-81499c9cf6a6">
          <g
             transform="translate(148.712, 134.765)"
             id="g4879">
            <path
               style="stroke:none;stroke-width:0"
               d="m 29.328194,-11.421889 c 0,-0.03125 -0.01563,-0.109375 -0.109375,-0.109375 -0.03125,0 -0.04687,0.01563 -0.15625,0.125 l -0.6875,0.765625 c -0.09375,-0.140625 -0.546875,-0.890625 -1.65625,-0.890625 -2.234375,0 -4.46875,2.2031248 -4.46875,4.5156248 0,1.640625 1.171875,2.734375 2.703125,2.734375 0.859375,0 1.625,-0.390625 2.15625,-0.859375 0.921875,-0.8125 1.09375,-1.71875 1.09375,-1.75 0,-0.109375 -0.109375,-0.109375 -0.125,-0.109375 -0.0625,0 -0.109375,0.03125 -0.125,0.109375 -0.09375,0.28125 -0.328125,1 -1.015625,1.578125 -0.6875,0.546875 -1.3125,0.71875 -1.828125,0.71875 -0.890625,0 -1.953125,-0.515625 -1.953125,-2.0625 0,-0.578125 0.203125,-2.1875 1.203125,-3.3593748 0.609375,-0.703125 1.546875,-1.203125 2.4375,-1.203125 1.015625,0 1.609375,0.765625 1.609375,1.9218748 0,0.40625 -0.03125,0.40625 -0.03125,0.515625 0,0.09375 0.109375,0.09375 0.140625,0.09375 0.125,0 0.125,-0.015625 0.1875,-0.203125 z m 0,0"
               id="id-1a831c33-7bc4-4d17-9458-182d40f7fa1c" />
          </g>
        </g>
      </g>
    </g>
  </g>
</svg>
